%TF.GenerationSoftware,KiCad,Pcbnew,(5.1.10)-1*%
%TF.CreationDate,2021-10-13T16:11:29-06:00*%
%TF.ProjectId,ReplicaDriverPuenteHL298,5265706c-6963-4614-9472-697665725075,1.0*%
%TF.SameCoordinates,Original*%
%TF.FileFunction,Legend,Top*%
%TF.FilePolarity,Positive*%
%FSLAX46Y46*%
G04 Gerber Fmt 4.6, Leading zero omitted, Abs format (unit mm)*
G04 Created by KiCad (PCBNEW (5.1.10)-1) date 2021-10-13 16:11:29*
%MOMM*%
%LPD*%
G01*
G04 APERTURE LIST*
%ADD10C,0.150000*%
%ADD11C,0.120000*%
%ADD12C,0.127000*%
%ADD13C,0.200000*%
G04 APERTURE END LIST*
D10*
X171023809Y-98702380D02*
X171214285Y-98702380D01*
X171309523Y-98750000D01*
X171404761Y-98845238D01*
X171452380Y-99035714D01*
X171452380Y-99369047D01*
X171404761Y-99559523D01*
X171309523Y-99654761D01*
X171214285Y-99702380D01*
X171023809Y-99702380D01*
X170928571Y-99654761D01*
X170833333Y-99559523D01*
X170785714Y-99369047D01*
X170785714Y-99035714D01*
X170833333Y-98845238D01*
X170928571Y-98750000D01*
X171023809Y-98702380D01*
X171880952Y-98702380D02*
X171880952Y-99511904D01*
X171928571Y-99607142D01*
X171976190Y-99654761D01*
X172071428Y-99702380D01*
X172261904Y-99702380D01*
X172357142Y-99654761D01*
X172404761Y-99607142D01*
X172452380Y-99511904D01*
X172452380Y-98702380D01*
X172785714Y-98702380D02*
X173357142Y-98702380D01*
X173071428Y-99702380D02*
X173071428Y-98702380D01*
X173642857Y-98797619D02*
X173690476Y-98750000D01*
X173785714Y-98702380D01*
X174023809Y-98702380D01*
X174119047Y-98750000D01*
X174166666Y-98797619D01*
X174214285Y-98892857D01*
X174214285Y-98988095D01*
X174166666Y-99130952D01*
X173595238Y-99702380D01*
X174214285Y-99702380D01*
X127273809Y-98702380D02*
X127464285Y-98702380D01*
X127559523Y-98750000D01*
X127654761Y-98845238D01*
X127702380Y-99035714D01*
X127702380Y-99369047D01*
X127654761Y-99559523D01*
X127559523Y-99654761D01*
X127464285Y-99702380D01*
X127273809Y-99702380D01*
X127178571Y-99654761D01*
X127083333Y-99559523D01*
X127035714Y-99369047D01*
X127035714Y-99035714D01*
X127083333Y-98845238D01*
X127178571Y-98750000D01*
X127273809Y-98702380D01*
X128130952Y-98702380D02*
X128130952Y-99511904D01*
X128178571Y-99607142D01*
X128226190Y-99654761D01*
X128321428Y-99702380D01*
X128511904Y-99702380D01*
X128607142Y-99654761D01*
X128654761Y-99607142D01*
X128702380Y-99511904D01*
X128702380Y-98702380D01*
X129035714Y-98702380D02*
X129607142Y-98702380D01*
X129321428Y-99702380D02*
X129321428Y-98702380D01*
X130464285Y-99702380D02*
X129892857Y-99702380D01*
X130178571Y-99702380D02*
X130178571Y-98702380D01*
X130083333Y-98845238D01*
X129988095Y-98940476D01*
X129892857Y-98988095D01*
X145416666Y-111952380D02*
X145416666Y-110952380D01*
X145797619Y-110952380D01*
X145892857Y-111000000D01*
X145940476Y-111047619D01*
X145988095Y-111142857D01*
X145988095Y-111285714D01*
X145940476Y-111380952D01*
X145892857Y-111428571D01*
X145797619Y-111476190D01*
X145416666Y-111476190D01*
X146321428Y-110952380D02*
X146559523Y-111952380D01*
X146750000Y-111238095D01*
X146940476Y-111952380D01*
X147178571Y-110952380D01*
X148130952Y-111952380D02*
X147797619Y-111476190D01*
X147559523Y-111952380D02*
X147559523Y-110952380D01*
X147940476Y-110952380D01*
X148035714Y-111000000D01*
X148083333Y-111047619D01*
X148130952Y-111142857D01*
X148130952Y-111285714D01*
X148083333Y-111380952D01*
X148035714Y-111428571D01*
X147940476Y-111476190D01*
X147559523Y-111476190D01*
X161000000Y-119952380D02*
X161000000Y-118952380D01*
X161476190Y-119952380D02*
X161476190Y-118952380D01*
X162047619Y-119952380D01*
X162047619Y-118952380D01*
X162952380Y-119285714D02*
X162952380Y-119952380D01*
X162714285Y-118904761D02*
X162476190Y-119619047D01*
X163095238Y-119619047D01*
X158500000Y-119952380D02*
X158500000Y-118952380D01*
X158976190Y-119952380D02*
X158976190Y-118952380D01*
X159547619Y-119952380D01*
X159547619Y-118952380D01*
X159928571Y-118952380D02*
X160547619Y-118952380D01*
X160214285Y-119333333D01*
X160357142Y-119333333D01*
X160452380Y-119380952D01*
X160500000Y-119428571D01*
X160547619Y-119523809D01*
X160547619Y-119761904D01*
X160500000Y-119857142D01*
X160452380Y-119904761D01*
X160357142Y-119952380D01*
X160071428Y-119952380D01*
X159976190Y-119904761D01*
X159928571Y-119857142D01*
X156000000Y-119952380D02*
X156000000Y-118952380D01*
X156476190Y-119952380D02*
X156476190Y-118952380D01*
X157047619Y-119952380D01*
X157047619Y-118952380D01*
X157476190Y-119047619D02*
X157523809Y-119000000D01*
X157619047Y-118952380D01*
X157857142Y-118952380D01*
X157952380Y-119000000D01*
X158000000Y-119047619D01*
X158047619Y-119142857D01*
X158047619Y-119238095D01*
X158000000Y-119380952D01*
X157428571Y-119952380D01*
X158047619Y-119952380D01*
X153500000Y-119952380D02*
X153500000Y-118952380D01*
X153976190Y-119952380D02*
X153976190Y-118952380D01*
X154547619Y-119952380D01*
X154547619Y-118952380D01*
X155547619Y-119952380D02*
X154976190Y-119952380D01*
X155261904Y-119952380D02*
X155261904Y-118952380D01*
X155166666Y-119095238D01*
X155071428Y-119190476D01*
X154976190Y-119238095D01*
X164761904Y-119428571D02*
X165095238Y-119428571D01*
X165238095Y-119952380D02*
X164761904Y-119952380D01*
X164761904Y-118952380D01*
X165238095Y-118952380D01*
X165666666Y-119952380D02*
X165666666Y-118952380D01*
X166238095Y-119952380D01*
X166238095Y-118952380D01*
X167047619Y-119428571D02*
X167190476Y-119476190D01*
X167238095Y-119523809D01*
X167285714Y-119619047D01*
X167285714Y-119761904D01*
X167238095Y-119857142D01*
X167190476Y-119904761D01*
X167095238Y-119952380D01*
X166714285Y-119952380D01*
X166714285Y-118952380D01*
X167047619Y-118952380D01*
X167142857Y-119000000D01*
X167190476Y-119047619D01*
X167238095Y-119142857D01*
X167238095Y-119238095D01*
X167190476Y-119333333D01*
X167142857Y-119380952D01*
X167047619Y-119428571D01*
X166714285Y-119428571D01*
X149333333Y-119428571D02*
X149666666Y-119428571D01*
X149809523Y-119952380D02*
X149333333Y-119952380D01*
X149333333Y-118952380D01*
X149809523Y-118952380D01*
X150238095Y-119952380D02*
X150238095Y-118952380D01*
X150809523Y-119952380D01*
X150809523Y-118952380D01*
X151238095Y-119666666D02*
X151714285Y-119666666D01*
X151142857Y-119952380D02*
X151476190Y-118952380D01*
X151809523Y-119952380D01*
%TO.C,HS1*%
X140200000Y-78700000D02*
X140200000Y-71200000D01*
X161700000Y-78700000D02*
X161700000Y-71200000D01*
X140200000Y-78700000D02*
X140200000Y-85700000D01*
X161700000Y-78700000D02*
X161700000Y-85700000D01*
X140200000Y-78700000D02*
X161700000Y-78700000D01*
D11*
%TO.C,C2*%
X161800000Y-110800000D02*
X161800000Y-108620000D01*
X161800000Y-104200000D02*
X161800000Y-106380000D01*
X155200000Y-110040000D02*
X155200000Y-108620000D01*
X155200000Y-104960000D02*
X155200000Y-106380000D01*
X161800000Y-110800000D02*
X155960000Y-110800000D01*
X155960000Y-110800000D02*
X155200000Y-110040000D01*
X155200000Y-104960000D02*
X155960000Y-104200000D01*
X155960000Y-104200000D02*
X161800000Y-104200000D01*
D12*
%TO.C,U1*%
X140790000Y-79370000D02*
X140790000Y-84370000D01*
X160990000Y-84370000D02*
X160990000Y-79370000D01*
X160990000Y-79370000D02*
X140790000Y-79370000D01*
D13*
X142100000Y-90590000D02*
G75*
G03*
X142100000Y-90590000I-100000J0D01*
G01*
D11*
%TO.C,C1*%
X138660000Y-104200000D02*
X144500000Y-104200000D01*
X137900000Y-104960000D02*
X138660000Y-104200000D01*
X138660000Y-110800000D02*
X137900000Y-110040000D01*
X144500000Y-110800000D02*
X138660000Y-110800000D01*
X137900000Y-104960000D02*
X137900000Y-106380000D01*
X137900000Y-110040000D02*
X137900000Y-108620000D01*
X144500000Y-104200000D02*
X144500000Y-106380000D01*
X144500000Y-110800000D02*
X144500000Y-108620000D01*
%TO.C,D1*%
X128100000Y-83850000D02*
X133500000Y-83850000D01*
X128100000Y-87150000D02*
X133500000Y-87150000D01*
X128100000Y-83850000D02*
X128100000Y-87150000D01*
%TO.C,D2*%
X128100000Y-88850000D02*
X128100000Y-92150000D01*
X128100000Y-92150000D02*
X133500000Y-92150000D01*
X128100000Y-88850000D02*
X133500000Y-88850000D01*
%TO.C,D3*%
X172900000Y-92150000D02*
X167500000Y-92150000D01*
X172900000Y-88850000D02*
X167500000Y-88850000D01*
X172900000Y-92150000D02*
X172900000Y-88850000D01*
%TO.C,D4*%
X172900000Y-87650000D02*
X172900000Y-84350000D01*
X172900000Y-84350000D02*
X167500000Y-84350000D01*
X172900000Y-87650000D02*
X167500000Y-87650000D01*
%TO.C,D5*%
X134900000Y-82150000D02*
X129500000Y-82150000D01*
X134900000Y-78850000D02*
X129500000Y-78850000D01*
X134900000Y-82150000D02*
X134900000Y-78850000D01*
%TO.C,D6*%
X134900000Y-97150000D02*
X134900000Y-93850000D01*
X134900000Y-93850000D02*
X129500000Y-93850000D01*
X134900000Y-97150000D02*
X129500000Y-97150000D01*
%TO.C,D7*%
X172900000Y-97150000D02*
X167500000Y-97150000D01*
X172900000Y-93850000D02*
X167500000Y-93850000D01*
X172900000Y-97150000D02*
X172900000Y-93850000D01*
%TO.C,D8*%
X172900000Y-82650000D02*
X172900000Y-79350000D01*
X172900000Y-79350000D02*
X167500000Y-79350000D01*
X172900000Y-82650000D02*
X167500000Y-82650000D01*
%TO.C,D9*%
X152200000Y-108250000D02*
X152200000Y-106750000D01*
X152200000Y-108250000D02*
X149000000Y-108250000D01*
X149000000Y-106750000D02*
X152200000Y-106750000D01*
%TO.C,J1*%
X163330000Y-116170000D02*
X163330000Y-117500000D01*
X162000000Y-116170000D02*
X163330000Y-116170000D01*
X160730000Y-116170000D02*
X160730000Y-118830000D01*
X160730000Y-118830000D02*
X153050000Y-118830000D01*
X160730000Y-116170000D02*
X153050000Y-116170000D01*
X153050000Y-116170000D02*
X153050000Y-118830000D01*
%TO.C,J2*%
X127960000Y-110120000D02*
X127960000Y-99960000D01*
X126690000Y-110120000D02*
X134310000Y-110120000D01*
X134310000Y-110120000D02*
X134310000Y-99960000D01*
X134310000Y-99960000D02*
X126690000Y-99960000D01*
X126690000Y-99960000D02*
X126690000Y-110120000D01*
%TO.C,J3*%
X174310000Y-110040000D02*
X174310000Y-99880000D01*
X166690000Y-110040000D02*
X174310000Y-110040000D01*
X166690000Y-99880000D02*
X166690000Y-110040000D01*
X174310000Y-99880000D02*
X166690000Y-99880000D01*
X173040000Y-99880000D02*
X173040000Y-110040000D01*
%TO.C,J4*%
X151830000Y-118830000D02*
X150500000Y-118830000D01*
X151830000Y-117500000D02*
X151830000Y-118830000D01*
X151830000Y-116230000D02*
X149170000Y-116230000D01*
X149170000Y-116230000D02*
X149170000Y-113630000D01*
X151830000Y-116230000D02*
X151830000Y-113630000D01*
X151830000Y-113630000D02*
X149170000Y-113630000D01*
%TO.C,J5*%
X167330000Y-118830000D02*
X166000000Y-118830000D01*
X167330000Y-117500000D02*
X167330000Y-118830000D01*
X167330000Y-116230000D02*
X164670000Y-116230000D01*
X164670000Y-116230000D02*
X164670000Y-113630000D01*
X167330000Y-116230000D02*
X167330000Y-113630000D01*
X167330000Y-113630000D02*
X164670000Y-113630000D01*
%TO.C,J6*%
X144830000Y-97130000D02*
X142170000Y-97130000D01*
X144830000Y-99730000D02*
X144830000Y-97130000D01*
X142170000Y-99730000D02*
X142170000Y-97130000D01*
X144830000Y-99730000D02*
X142170000Y-99730000D01*
X144830000Y-101000000D02*
X144830000Y-102330000D01*
X144830000Y-102330000D02*
X143500000Y-102330000D01*
%TO.C,J7*%
X132960000Y-119810000D02*
X148200000Y-119810000D01*
X132960000Y-112190000D02*
X148200000Y-112190000D01*
X132960000Y-118540000D02*
X148200000Y-118540000D01*
X148200000Y-119810000D02*
X148200000Y-112190000D01*
X132960000Y-119810000D02*
X132960000Y-112190000D01*
%TO.C,R1*%
X150600000Y-104380000D02*
X149400000Y-104380000D01*
X149400000Y-102620000D02*
X150600000Y-102620000D01*
%TO.C,U2*%
X153255000Y-99705000D02*
X152155000Y-99705000D01*
X153255000Y-99975000D02*
X153255000Y-99705000D01*
X154755000Y-99975000D02*
X153255000Y-99975000D01*
X153255000Y-93345000D02*
X150425000Y-93345000D01*
X153255000Y-93075000D02*
X153255000Y-93345000D01*
X154755000Y-93075000D02*
X153255000Y-93075000D01*
%TO.C,HS1*%
D10*
X148961904Y-73552380D02*
X148961904Y-72552380D01*
X148961904Y-73028571D02*
X149533333Y-73028571D01*
X149533333Y-73552380D02*
X149533333Y-72552380D01*
X149961904Y-73504761D02*
X150104761Y-73552380D01*
X150342857Y-73552380D01*
X150438095Y-73504761D01*
X150485714Y-73457142D01*
X150533333Y-73361904D01*
X150533333Y-73266666D01*
X150485714Y-73171428D01*
X150438095Y-73123809D01*
X150342857Y-73076190D01*
X150152380Y-73028571D01*
X150057142Y-72980952D01*
X150009523Y-72933333D01*
X149961904Y-72838095D01*
X149961904Y-72742857D01*
X150009523Y-72647619D01*
X150057142Y-72600000D01*
X150152380Y-72552380D01*
X150390476Y-72552380D01*
X150533333Y-72600000D01*
X151485714Y-73552380D02*
X150914285Y-73552380D01*
X151200000Y-73552380D02*
X151200000Y-72552380D01*
X151104761Y-72695238D01*
X151009523Y-72790476D01*
X150914285Y-72838095D01*
%TO.C,C2*%
X154333333Y-104357142D02*
X154285714Y-104404761D01*
X154142857Y-104452380D01*
X154047619Y-104452380D01*
X153904761Y-104404761D01*
X153809523Y-104309523D01*
X153761904Y-104214285D01*
X153714285Y-104023809D01*
X153714285Y-103880952D01*
X153761904Y-103690476D01*
X153809523Y-103595238D01*
X153904761Y-103500000D01*
X154047619Y-103452380D01*
X154142857Y-103452380D01*
X154285714Y-103500000D01*
X154333333Y-103547619D01*
X154714285Y-103547619D02*
X154761904Y-103500000D01*
X154857142Y-103452380D01*
X155095238Y-103452380D01*
X155190476Y-103500000D01*
X155238095Y-103547619D01*
X155285714Y-103642857D01*
X155285714Y-103738095D01*
X155238095Y-103880952D01*
X154666666Y-104452380D01*
X155285714Y-104452380D01*
X153839047Y-110581428D02*
X154600952Y-110581428D01*
X154220000Y-110962380D02*
X154220000Y-110200476D01*
%TO.C,U1*%
X149738095Y-90452380D02*
X149738095Y-91261904D01*
X149785714Y-91357142D01*
X149833333Y-91404761D01*
X149928571Y-91452380D01*
X150119047Y-91452380D01*
X150214285Y-91404761D01*
X150261904Y-91357142D01*
X150309523Y-91261904D01*
X150309523Y-90452380D01*
X151309523Y-91452380D02*
X150738095Y-91452380D01*
X151023809Y-91452380D02*
X151023809Y-90452380D01*
X150928571Y-90595238D01*
X150833333Y-90690476D01*
X150738095Y-90738095D01*
%TO.C,C1*%
X139333333Y-103857142D02*
X139285714Y-103904761D01*
X139142857Y-103952380D01*
X139047619Y-103952380D01*
X138904761Y-103904761D01*
X138809523Y-103809523D01*
X138761904Y-103714285D01*
X138714285Y-103523809D01*
X138714285Y-103380952D01*
X138761904Y-103190476D01*
X138809523Y-103095238D01*
X138904761Y-103000000D01*
X139047619Y-102952380D01*
X139142857Y-102952380D01*
X139285714Y-103000000D01*
X139333333Y-103047619D01*
X140285714Y-103952380D02*
X139714285Y-103952380D01*
X140000000Y-103952380D02*
X140000000Y-102952380D01*
X139904761Y-103095238D01*
X139809523Y-103190476D01*
X139714285Y-103238095D01*
X136539047Y-110581428D02*
X137300952Y-110581428D01*
X136920000Y-110962380D02*
X136920000Y-110200476D01*
%TO.C,D1*%
X128261904Y-83452380D02*
X128261904Y-82452380D01*
X128500000Y-82452380D01*
X128642857Y-82500000D01*
X128738095Y-82595238D01*
X128785714Y-82690476D01*
X128833333Y-82880952D01*
X128833333Y-83023809D01*
X128785714Y-83214285D01*
X128738095Y-83309523D01*
X128642857Y-83404761D01*
X128500000Y-83452380D01*
X128261904Y-83452380D01*
X129785714Y-83452380D02*
X129214285Y-83452380D01*
X129500000Y-83452380D02*
X129500000Y-82452380D01*
X129404761Y-82595238D01*
X129309523Y-82690476D01*
X129214285Y-82738095D01*
%TO.C,D2*%
X128261904Y-88452380D02*
X128261904Y-87452380D01*
X128500000Y-87452380D01*
X128642857Y-87500000D01*
X128738095Y-87595238D01*
X128785714Y-87690476D01*
X128833333Y-87880952D01*
X128833333Y-88023809D01*
X128785714Y-88214285D01*
X128738095Y-88309523D01*
X128642857Y-88404761D01*
X128500000Y-88452380D01*
X128261904Y-88452380D01*
X129214285Y-87547619D02*
X129261904Y-87500000D01*
X129357142Y-87452380D01*
X129595238Y-87452380D01*
X129690476Y-87500000D01*
X129738095Y-87547619D01*
X129785714Y-87642857D01*
X129785714Y-87738095D01*
X129738095Y-87880952D01*
X129166666Y-88452380D01*
X129785714Y-88452380D01*
%TO.C,D3*%
X168761904Y-93452380D02*
X168761904Y-92452380D01*
X169000000Y-92452380D01*
X169142857Y-92500000D01*
X169238095Y-92595238D01*
X169285714Y-92690476D01*
X169333333Y-92880952D01*
X169333333Y-93023809D01*
X169285714Y-93214285D01*
X169238095Y-93309523D01*
X169142857Y-93404761D01*
X169000000Y-93452380D01*
X168761904Y-93452380D01*
X169666666Y-92452380D02*
X170285714Y-92452380D01*
X169952380Y-92833333D01*
X170095238Y-92833333D01*
X170190476Y-92880952D01*
X170238095Y-92928571D01*
X170285714Y-93023809D01*
X170285714Y-93261904D01*
X170238095Y-93357142D01*
X170190476Y-93404761D01*
X170095238Y-93452380D01*
X169809523Y-93452380D01*
X169714285Y-93404761D01*
X169666666Y-93357142D01*
%TO.C,D4*%
X173261904Y-85452380D02*
X173261904Y-84452380D01*
X173500000Y-84452380D01*
X173642857Y-84500000D01*
X173738095Y-84595238D01*
X173785714Y-84690476D01*
X173833333Y-84880952D01*
X173833333Y-85023809D01*
X173785714Y-85214285D01*
X173738095Y-85309523D01*
X173642857Y-85404761D01*
X173500000Y-85452380D01*
X173261904Y-85452380D01*
X174690476Y-84785714D02*
X174690476Y-85452380D01*
X174452380Y-84404761D02*
X174214285Y-85119047D01*
X174833333Y-85119047D01*
%TO.C,D5*%
X133261904Y-78452380D02*
X133261904Y-77452380D01*
X133500000Y-77452380D01*
X133642857Y-77500000D01*
X133738095Y-77595238D01*
X133785714Y-77690476D01*
X133833333Y-77880952D01*
X133833333Y-78023809D01*
X133785714Y-78214285D01*
X133738095Y-78309523D01*
X133642857Y-78404761D01*
X133500000Y-78452380D01*
X133261904Y-78452380D01*
X134738095Y-77452380D02*
X134261904Y-77452380D01*
X134214285Y-77928571D01*
X134261904Y-77880952D01*
X134357142Y-77833333D01*
X134595238Y-77833333D01*
X134690476Y-77880952D01*
X134738095Y-77928571D01*
X134785714Y-78023809D01*
X134785714Y-78261904D01*
X134738095Y-78357142D01*
X134690476Y-78404761D01*
X134595238Y-78452380D01*
X134357142Y-78452380D01*
X134261904Y-78404761D01*
X134214285Y-78357142D01*
%TO.C,D6*%
X133261904Y-93452380D02*
X133261904Y-92452380D01*
X133500000Y-92452380D01*
X133642857Y-92500000D01*
X133738095Y-92595238D01*
X133785714Y-92690476D01*
X133833333Y-92880952D01*
X133833333Y-93023809D01*
X133785714Y-93214285D01*
X133738095Y-93309523D01*
X133642857Y-93404761D01*
X133500000Y-93452380D01*
X133261904Y-93452380D01*
X134690476Y-92452380D02*
X134500000Y-92452380D01*
X134404761Y-92500000D01*
X134357142Y-92547619D01*
X134261904Y-92690476D01*
X134214285Y-92880952D01*
X134214285Y-93261904D01*
X134261904Y-93357142D01*
X134309523Y-93404761D01*
X134404761Y-93452380D01*
X134595238Y-93452380D01*
X134690476Y-93404761D01*
X134738095Y-93357142D01*
X134785714Y-93261904D01*
X134785714Y-93023809D01*
X134738095Y-92928571D01*
X134690476Y-92880952D01*
X134595238Y-92833333D01*
X134404761Y-92833333D01*
X134309523Y-92880952D01*
X134261904Y-92928571D01*
X134214285Y-93023809D01*
%TO.C,D7*%
X173261904Y-95952380D02*
X173261904Y-94952380D01*
X173500000Y-94952380D01*
X173642857Y-95000000D01*
X173738095Y-95095238D01*
X173785714Y-95190476D01*
X173833333Y-95380952D01*
X173833333Y-95523809D01*
X173785714Y-95714285D01*
X173738095Y-95809523D01*
X173642857Y-95904761D01*
X173500000Y-95952380D01*
X173261904Y-95952380D01*
X174166666Y-94952380D02*
X174833333Y-94952380D01*
X174404761Y-95952380D01*
%TO.C,D8*%
X167761904Y-78952380D02*
X167761904Y-77952380D01*
X168000000Y-77952380D01*
X168142857Y-78000000D01*
X168238095Y-78095238D01*
X168285714Y-78190476D01*
X168333333Y-78380952D01*
X168333333Y-78523809D01*
X168285714Y-78714285D01*
X168238095Y-78809523D01*
X168142857Y-78904761D01*
X168000000Y-78952380D01*
X167761904Y-78952380D01*
X168904761Y-78380952D02*
X168809523Y-78333333D01*
X168761904Y-78285714D01*
X168714285Y-78190476D01*
X168714285Y-78142857D01*
X168761904Y-78047619D01*
X168809523Y-78000000D01*
X168904761Y-77952380D01*
X169095238Y-77952380D01*
X169190476Y-78000000D01*
X169238095Y-78047619D01*
X169285714Y-78142857D01*
X169285714Y-78190476D01*
X169238095Y-78285714D01*
X169190476Y-78333333D01*
X169095238Y-78380952D01*
X168904761Y-78380952D01*
X168809523Y-78428571D01*
X168761904Y-78476190D01*
X168714285Y-78571428D01*
X168714285Y-78761904D01*
X168761904Y-78857142D01*
X168809523Y-78904761D01*
X168904761Y-78952380D01*
X169095238Y-78952380D01*
X169190476Y-78904761D01*
X169238095Y-78857142D01*
X169285714Y-78761904D01*
X169285714Y-78571428D01*
X169238095Y-78476190D01*
X169190476Y-78428571D01*
X169095238Y-78380952D01*
%TO.C,D9*%
X147761904Y-105952380D02*
X147761904Y-104952380D01*
X148000000Y-104952380D01*
X148142857Y-105000000D01*
X148238095Y-105095238D01*
X148285714Y-105190476D01*
X148333333Y-105380952D01*
X148333333Y-105523809D01*
X148285714Y-105714285D01*
X148238095Y-105809523D01*
X148142857Y-105904761D01*
X148000000Y-105952380D01*
X147761904Y-105952380D01*
X148809523Y-105952380D02*
X149000000Y-105952380D01*
X149095238Y-105904761D01*
X149142857Y-105857142D01*
X149238095Y-105714285D01*
X149285714Y-105523809D01*
X149285714Y-105142857D01*
X149238095Y-105047619D01*
X149190476Y-105000000D01*
X149095238Y-104952380D01*
X148904761Y-104952380D01*
X148809523Y-105000000D01*
X148761904Y-105047619D01*
X148714285Y-105142857D01*
X148714285Y-105380952D01*
X148761904Y-105476190D01*
X148809523Y-105523809D01*
X148904761Y-105571428D01*
X149095238Y-105571428D01*
X149190476Y-105523809D01*
X149238095Y-105476190D01*
X149285714Y-105380952D01*
%TO.C,J1*%
X153666666Y-114952380D02*
X153666666Y-115666666D01*
X153619047Y-115809523D01*
X153523809Y-115904761D01*
X153380952Y-115952380D01*
X153285714Y-115952380D01*
X154666666Y-115952380D02*
X154095238Y-115952380D01*
X154380952Y-115952380D02*
X154380952Y-114952380D01*
X154285714Y-115095238D01*
X154190476Y-115190476D01*
X154095238Y-115238095D01*
%TO.C,J2*%
X133416666Y-98702380D02*
X133416666Y-99416666D01*
X133369047Y-99559523D01*
X133273809Y-99654761D01*
X133130952Y-99702380D01*
X133035714Y-99702380D01*
X133845238Y-98797619D02*
X133892857Y-98750000D01*
X133988095Y-98702380D01*
X134226190Y-98702380D01*
X134321428Y-98750000D01*
X134369047Y-98797619D01*
X134416666Y-98892857D01*
X134416666Y-98988095D01*
X134369047Y-99130952D01*
X133797619Y-99702380D01*
X134416666Y-99702380D01*
%TO.C,J3*%
X167166666Y-98702380D02*
X167166666Y-99416666D01*
X167119047Y-99559523D01*
X167023809Y-99654761D01*
X166880952Y-99702380D01*
X166785714Y-99702380D01*
X167547619Y-98702380D02*
X168166666Y-98702380D01*
X167833333Y-99083333D01*
X167976190Y-99083333D01*
X168071428Y-99130952D01*
X168119047Y-99178571D01*
X168166666Y-99273809D01*
X168166666Y-99511904D01*
X168119047Y-99607142D01*
X168071428Y-99654761D01*
X167976190Y-99702380D01*
X167690476Y-99702380D01*
X167595238Y-99654761D01*
X167547619Y-99607142D01*
%TO.C,J4*%
X149666666Y-112452380D02*
X149666666Y-113166666D01*
X149619047Y-113309523D01*
X149523809Y-113404761D01*
X149380952Y-113452380D01*
X149285714Y-113452380D01*
X150571428Y-112785714D02*
X150571428Y-113452380D01*
X150333333Y-112404761D02*
X150095238Y-113119047D01*
X150714285Y-113119047D01*
%TO.C,J5*%
X165666666Y-112452380D02*
X165666666Y-113166666D01*
X165619047Y-113309523D01*
X165523809Y-113404761D01*
X165380952Y-113452380D01*
X165285714Y-113452380D01*
X166619047Y-112452380D02*
X166142857Y-112452380D01*
X166095238Y-112928571D01*
X166142857Y-112880952D01*
X166238095Y-112833333D01*
X166476190Y-112833333D01*
X166571428Y-112880952D01*
X166619047Y-112928571D01*
X166666666Y-113023809D01*
X166666666Y-113261904D01*
X166619047Y-113357142D01*
X166571428Y-113404761D01*
X166476190Y-113452380D01*
X166238095Y-113452380D01*
X166142857Y-113404761D01*
X166095238Y-113357142D01*
%TO.C,J6*%
X142666666Y-95952380D02*
X142666666Y-96666666D01*
X142619047Y-96809523D01*
X142523809Y-96904761D01*
X142380952Y-96952380D01*
X142285714Y-96952380D01*
X143571428Y-95952380D02*
X143380952Y-95952380D01*
X143285714Y-96000000D01*
X143238095Y-96047619D01*
X143142857Y-96190476D01*
X143095238Y-96380952D01*
X143095238Y-96761904D01*
X143142857Y-96857142D01*
X143190476Y-96904761D01*
X143285714Y-96952380D01*
X143476190Y-96952380D01*
X143571428Y-96904761D01*
X143619047Y-96857142D01*
X143666666Y-96761904D01*
X143666666Y-96523809D01*
X143619047Y-96428571D01*
X143571428Y-96380952D01*
X143476190Y-96333333D01*
X143285714Y-96333333D01*
X143190476Y-96380952D01*
X143142857Y-96428571D01*
X143095238Y-96523809D01*
%TO.C,J7*%
X133166666Y-110952380D02*
X133166666Y-111666666D01*
X133119047Y-111809523D01*
X133023809Y-111904761D01*
X132880952Y-111952380D01*
X132785714Y-111952380D01*
X133547619Y-110952380D02*
X134214285Y-110952380D01*
X133785714Y-111952380D01*
%TO.C,R1*%
X148333333Y-101952380D02*
X148000000Y-101476190D01*
X147761904Y-101952380D02*
X147761904Y-100952380D01*
X148142857Y-100952380D01*
X148238095Y-101000000D01*
X148285714Y-101047619D01*
X148333333Y-101142857D01*
X148333333Y-101285714D01*
X148285714Y-101380952D01*
X148238095Y-101428571D01*
X148142857Y-101476190D01*
X147761904Y-101476190D01*
X149285714Y-101952380D02*
X148714285Y-101952380D01*
X149000000Y-101952380D02*
X149000000Y-100952380D01*
X148904761Y-101095238D01*
X148809523Y-101190476D01*
X148714285Y-101238095D01*
%TO.C,U2*%
X153238095Y-91452380D02*
X153238095Y-92261904D01*
X153285714Y-92357142D01*
X153333333Y-92404761D01*
X153428571Y-92452380D01*
X153619047Y-92452380D01*
X153714285Y-92404761D01*
X153761904Y-92357142D01*
X153809523Y-92261904D01*
X153809523Y-91452380D01*
X154238095Y-91547619D02*
X154285714Y-91500000D01*
X154380952Y-91452380D01*
X154619047Y-91452380D01*
X154714285Y-91500000D01*
X154761904Y-91547619D01*
X154809523Y-91642857D01*
X154809523Y-91738095D01*
X154761904Y-91880952D01*
X154190476Y-92452380D01*
X154809523Y-92452380D01*
%TD*%
M02*
