%TF.GenerationSoftware,KiCad,Pcbnew,(5.1.10)-1*%
%TF.CreationDate,2021-10-13T16:11:29-06:00*%
%TF.ProjectId,ReplicaDriverPuenteHL298,5265706c-6963-4614-9472-697665725075,1.0*%
%TF.SameCoordinates,Original*%
%TF.FileFunction,Copper,L2,Bot*%
%TF.FilePolarity,Positive*%
%FSLAX46Y46*%
G04 Gerber Fmt 4.6, Leading zero omitted, Abs format (unit mm)*
G04 Created by KiCad (PCBNEW (5.1.10)-1) date 2021-10-13 16:11:29*
%MOMM*%
%LPD*%
G01*
G04 APERTURE LIST*
%TA.AperFunction,ComponentPad*%
%ADD10C,1.524000*%
%TD*%
%TA.AperFunction,ComponentPad*%
%ADD11R,1.620000X1.620000*%
%TD*%
%TA.AperFunction,ComponentPad*%
%ADD12C,1.620000*%
%TD*%
%TA.AperFunction,ComponentPad*%
%ADD13C,5.400000*%
%TD*%
%TA.AperFunction,ComponentPad*%
%ADD14O,1.700000X1.700000*%
%TD*%
%TA.AperFunction,ComponentPad*%
%ADD15R,1.700000X1.700000*%
%TD*%
%TA.AperFunction,ComponentPad*%
%ADD16R,3.000000X3.000000*%
%TD*%
%TA.AperFunction,ComponentPad*%
%ADD17C,3.000000*%
%TD*%
%TA.AperFunction,ViaPad*%
%ADD18C,0.700000*%
%TD*%
%TA.AperFunction,ViaPad*%
%ADD19C,1.600000*%
%TD*%
%TA.AperFunction,Conductor*%
%ADD20C,2.100000*%
%TD*%
%TA.AperFunction,Conductor*%
%ADD21C,1.000000*%
%TD*%
%TA.AperFunction,Conductor*%
%ADD22C,0.400000*%
%TD*%
%TA.AperFunction,Conductor*%
%ADD23C,0.254000*%
%TD*%
%TA.AperFunction,Conductor*%
%ADD24C,0.100000*%
%TD*%
G04 APERTURE END LIST*
D10*
%TO.P,HS1,1*%
%TO.N,N/C*%
X141700000Y-77700000D03*
%TO.P,HS1,2*%
X160200000Y-77700000D03*
%TD*%
D11*
%TO.P,U1,1*%
%TO.N,GND*%
X142000000Y-89000000D03*
D12*
%TO.P,U1,2*%
%TO.N,Net-(D1-Pad2)*%
X143270000Y-83920000D03*
%TO.P,U1,3*%
%TO.N,Net-(D2-Pad2)*%
X144540000Y-89000000D03*
%TO.P,U1,4*%
%TO.N,VCC*%
X145810000Y-83920000D03*
%TO.P,U1,5*%
%TO.N,Net-(J1-Pad4)*%
X147080000Y-89000000D03*
%TO.P,U1,6*%
%TO.N,/EnA*%
X148350000Y-83920000D03*
%TO.P,U1,7*%
%TO.N,Net-(J1-Pad3)*%
X149620000Y-89000000D03*
%TO.P,U1,8*%
%TO.N,GND*%
X150890000Y-83920000D03*
%TO.P,U1,9*%
%TO.N,+5V*%
X152160000Y-89000000D03*
%TO.P,U1,10*%
%TO.N,Net-(J1-Pad2)*%
X153430000Y-83920000D03*
%TO.P,U1,11*%
%TO.N,/EnB*%
X154700000Y-89000000D03*
%TO.P,U1,12*%
%TO.N,Net-(J1-Pad1)*%
X155970000Y-83920000D03*
%TO.P,U1,13*%
%TO.N,Net-(D3-Pad2)*%
X157240000Y-89000000D03*
%TO.P,U1,14*%
%TO.N,Net-(D4-Pad2)*%
X158510000Y-83920000D03*
%TO.P,U1,15*%
%TO.N,Net-(U1-Pad15)*%
X159780000Y-89000000D03*
%TD*%
D13*
%TO.P,H4,1*%
%TO.N,N/C*%
X129000000Y-74500000D03*
%TD*%
%TO.P,H3,1*%
%TO.N,N/C*%
X172000000Y-74500000D03*
%TD*%
%TO.P,H2,1*%
%TO.N,N/C*%
X172000000Y-117500000D03*
%TD*%
%TO.P,H1,1*%
%TO.N,N/C*%
X129000000Y-117500000D03*
%TD*%
D14*
%TO.P,J1,4*%
%TO.N,Net-(J1-Pad4)*%
X154380000Y-117500000D03*
%TO.P,J1,3*%
%TO.N,Net-(J1-Pad3)*%
X156920000Y-117500000D03*
%TO.P,J1,2*%
%TO.N,Net-(J1-Pad2)*%
X159460000Y-117500000D03*
D15*
%TO.P,J1,1*%
%TO.N,Net-(J1-Pad1)*%
X162000000Y-117500000D03*
%TD*%
D16*
%TO.P,J2,1*%
%TO.N,Net-(D1-Pad2)*%
X130500000Y-102500000D03*
D17*
%TO.P,J2,2*%
%TO.N,Net-(D2-Pad2)*%
X130500000Y-107580000D03*
%TD*%
%TO.P,J3,2*%
%TO.N,Net-(D4-Pad2)*%
X170500000Y-102420000D03*
D16*
%TO.P,J3,1*%
%TO.N,Net-(D3-Pad2)*%
X170500000Y-107500000D03*
%TD*%
D14*
%TO.P,J4,2*%
%TO.N,/EnA*%
X150500000Y-114960000D03*
D15*
%TO.P,J4,1*%
%TO.N,+5V*%
X150500000Y-117500000D03*
%TD*%
D14*
%TO.P,J5,2*%
%TO.N,/EnB*%
X166000000Y-114960000D03*
D15*
%TO.P,J5,1*%
%TO.N,+5V*%
X166000000Y-117500000D03*
%TD*%
%TO.P,J6,1*%
%TO.N,VCC*%
X143500000Y-101000000D03*
D14*
%TO.P,J6,2*%
%TO.N,Net-(J6-Pad2)*%
X143500000Y-98460000D03*
%TD*%
D17*
%TO.P,J7,3*%
%TO.N,+5V*%
X145660000Y-116000000D03*
%TO.P,J7,2*%
%TO.N,GND*%
X140580000Y-116000000D03*
D16*
%TO.P,J7,1*%
%TO.N,VCC*%
X135500000Y-116000000D03*
%TD*%
D18*
%TO.N,GND*%
X140000000Y-88500000D03*
X141000000Y-91000000D03*
X140000000Y-95000000D03*
X140000000Y-97000000D03*
X140000000Y-99000000D03*
X156000000Y-101000000D03*
X142000000Y-95000000D03*
X144000000Y-95000000D03*
X146000000Y-93000000D03*
X146000000Y-95000000D03*
X140000000Y-90000000D03*
X156000000Y-101000000D03*
X158000000Y-101000000D03*
X160000000Y-101000000D03*
X162000000Y-101000000D03*
X156000000Y-103000000D03*
X158000000Y-103000000D03*
X160000000Y-103000000D03*
X162000000Y-103000000D03*
X156000000Y-92000000D03*
X158000000Y-92000000D03*
X160000000Y-92000000D03*
X162000000Y-92000000D03*
X163000000Y-94000000D03*
X163000000Y-96500000D03*
X163000000Y-99000000D03*
D19*
%TO.N,VCC*%
X137000000Y-88000000D03*
X137000000Y-99500000D03*
X171500000Y-88200000D03*
%TO.N,+5V*%
X151500000Y-101000000D03*
D18*
%TO.N,Net-(J1-Pad2)*%
X162500000Y-111000000D03*
X165000000Y-108500000D03*
%TO.N,Net-(J1-Pad1)*%
X164000000Y-112500000D03*
X166300000Y-110200000D03*
%TD*%
D20*
%TO.N,VCC*%
X137000000Y-99500000D02*
X137000000Y-88000000D01*
X171500000Y-82750000D02*
X171500000Y-88200000D01*
X171500000Y-81300000D02*
X171500000Y-82750000D01*
X165200000Y-75000000D02*
X171500000Y-81300000D01*
X149700000Y-75000000D02*
X165200000Y-75000000D01*
X145810000Y-78890000D02*
X149700000Y-75000000D01*
X145810000Y-83920000D02*
X145810000Y-78890000D01*
D21*
%TO.N,+5V*%
X151500000Y-101000000D02*
X151500000Y-93000000D01*
X152160000Y-92340000D02*
X152160000Y-89000000D01*
X151500000Y-93000000D02*
X152160000Y-92340000D01*
D20*
%TO.N,Net-(D1-Pad2)*%
X135880000Y-83920000D02*
X133600000Y-86200000D01*
X143270000Y-83920000D02*
X135880000Y-83920000D01*
X133600000Y-99400000D02*
X130500000Y-102500000D01*
X133600000Y-86200000D02*
X133600000Y-99400000D01*
%TO.N,Net-(D4-Pad2)*%
X160833466Y-84000000D02*
X158590000Y-84000000D01*
X164700020Y-87866554D02*
X160833466Y-84000000D01*
X158590000Y-84000000D02*
X158510000Y-83920000D01*
X164700020Y-87866554D02*
X164866554Y-87866554D01*
X170500000Y-93500000D02*
X170500000Y-102420000D01*
X164866554Y-87866554D02*
X170500000Y-93500000D01*
D22*
%TO.N,Net-(J1-Pad4)*%
X147080000Y-89000000D02*
X147080000Y-104080000D01*
X147080000Y-104080000D02*
X154380000Y-111380000D01*
X154380000Y-111380000D02*
X154380000Y-117500000D01*
%TO.N,Net-(J1-Pad3)*%
X149620000Y-104357246D02*
X156920000Y-111657246D01*
X149620000Y-89000000D02*
X149620000Y-104357246D01*
X156920000Y-111657246D02*
X156920000Y-117500000D01*
%TO.N,Net-(J1-Pad2)*%
X159460000Y-114040000D02*
X162500000Y-111000000D01*
X159460000Y-117500000D02*
X159460000Y-114040000D01*
X164400001Y-107900001D02*
X165000000Y-108500000D01*
X164400001Y-92327999D02*
X164400001Y-107900001D01*
X162250000Y-90177998D02*
X164400001Y-92327999D01*
X162250000Y-89000000D02*
X162250000Y-90177998D01*
X160250000Y-87000000D02*
X162250000Y-89000000D01*
X155000000Y-87000000D02*
X160250000Y-87000000D01*
X153430000Y-85430000D02*
X155000000Y-87000000D01*
X153430000Y-83920000D02*
X153430000Y-85430000D01*
%TO.N,Net-(J1-Pad1)*%
X162000000Y-114500000D02*
X164000000Y-112500000D01*
X162000000Y-117500000D02*
X162000000Y-114500000D01*
X165200011Y-91996625D02*
X165200011Y-106200011D01*
X163050010Y-89846624D02*
X165200011Y-91996625D01*
X163050010Y-88550010D02*
X163050010Y-89846624D01*
X160500000Y-86000000D02*
X163050010Y-88550010D01*
X156641384Y-86000000D02*
X160500000Y-86000000D01*
X155970000Y-85328616D02*
X156641384Y-86000000D01*
X155970000Y-83920000D02*
X155970000Y-85328616D01*
X166300000Y-107300000D02*
X165200011Y-106200011D01*
X166300000Y-110200000D02*
X166300000Y-107300000D01*
%TO.N,/EnA*%
X146699990Y-85570010D02*
X148350000Y-83920000D01*
X140429990Y-85570010D02*
X146699990Y-85570010D01*
X138650010Y-87349990D02*
X140429990Y-85570010D01*
X138650010Y-103110010D02*
X138650010Y-87349990D01*
X150500000Y-114960000D02*
X138650010Y-103110010D01*
%TO.N,/EnB*%
X154700000Y-89000000D02*
X154700000Y-100700000D01*
X166000000Y-112427998D02*
X163072002Y-109500000D01*
X166000000Y-114960000D02*
X166000000Y-112427998D01*
X163072002Y-109500000D02*
X158000000Y-109500000D01*
X154700000Y-106200000D02*
X154700000Y-100700000D01*
X158000000Y-109500000D02*
X154700000Y-106200000D01*
%TD*%
D23*
%TO.N,GND*%
X169874061Y-71909536D02*
X169409536Y-72374061D01*
X169044561Y-72920285D01*
X168793162Y-73527216D01*
X168665000Y-74171531D01*
X168665000Y-74828469D01*
X168793162Y-75472784D01*
X169044561Y-76079715D01*
X169409536Y-76625939D01*
X169874061Y-77090464D01*
X170420285Y-77455439D01*
X171027216Y-77706838D01*
X171671531Y-77835000D01*
X172328469Y-77835000D01*
X172972784Y-77706838D01*
X173579715Y-77455439D01*
X174125939Y-77090464D01*
X174590464Y-76625939D01*
X174765000Y-76364727D01*
X174765001Y-115635274D01*
X174590464Y-115374061D01*
X174125939Y-114909536D01*
X173579715Y-114544561D01*
X172972784Y-114293162D01*
X172328469Y-114165000D01*
X171671531Y-114165000D01*
X171027216Y-114293162D01*
X170420285Y-114544561D01*
X169874061Y-114909536D01*
X169409536Y-115374061D01*
X169044561Y-115920285D01*
X168793162Y-116527216D01*
X168665000Y-117171531D01*
X168665000Y-117828469D01*
X168793162Y-118472784D01*
X169044561Y-119079715D01*
X169409536Y-119625939D01*
X169874061Y-120090464D01*
X170135273Y-120265000D01*
X130864727Y-120265000D01*
X131125939Y-120090464D01*
X131590464Y-119625939D01*
X131955439Y-119079715D01*
X132206838Y-118472784D01*
X132335000Y-117828469D01*
X132335000Y-117171531D01*
X132206838Y-116527216D01*
X131955439Y-115920285D01*
X131590464Y-115374061D01*
X131125939Y-114909536D01*
X130579715Y-114544561D01*
X130472136Y-114500000D01*
X133361928Y-114500000D01*
X133361928Y-117500000D01*
X133374188Y-117624482D01*
X133410498Y-117744180D01*
X133469463Y-117854494D01*
X133548815Y-117951185D01*
X133645506Y-118030537D01*
X133755820Y-118089502D01*
X133875518Y-118125812D01*
X134000000Y-118138072D01*
X137000000Y-118138072D01*
X137124482Y-118125812D01*
X137244180Y-118089502D01*
X137354494Y-118030537D01*
X137451185Y-117951185D01*
X137530537Y-117854494D01*
X137589502Y-117744180D01*
X137625812Y-117624482D01*
X137638072Y-117500000D01*
X137638072Y-117491653D01*
X139267952Y-117491653D01*
X139423962Y-117807214D01*
X139798745Y-117998020D01*
X140203551Y-118112044D01*
X140622824Y-118144902D01*
X141040451Y-118095334D01*
X141440383Y-117965243D01*
X141736038Y-117807214D01*
X141892048Y-117491653D01*
X140580000Y-116179605D01*
X139267952Y-117491653D01*
X137638072Y-117491653D01*
X137638072Y-116042824D01*
X138435098Y-116042824D01*
X138484666Y-116460451D01*
X138614757Y-116860383D01*
X138772786Y-117156038D01*
X139088347Y-117312048D01*
X140400395Y-116000000D01*
X140759605Y-116000000D01*
X142071653Y-117312048D01*
X142387214Y-117156038D01*
X142578020Y-116781255D01*
X142692044Y-116376449D01*
X142724902Y-115957176D01*
X142705027Y-115789721D01*
X143525000Y-115789721D01*
X143525000Y-116210279D01*
X143607047Y-116622756D01*
X143767988Y-117011302D01*
X144001637Y-117360983D01*
X144299017Y-117658363D01*
X144648698Y-117892012D01*
X145037244Y-118052953D01*
X145449721Y-118135000D01*
X145870279Y-118135000D01*
X146282756Y-118052953D01*
X146671302Y-117892012D01*
X147020983Y-117658363D01*
X147318363Y-117360983D01*
X147552012Y-117011302D01*
X147712953Y-116622756D01*
X147795000Y-116210279D01*
X147795000Y-115789721D01*
X147712953Y-115377244D01*
X147552012Y-114988698D01*
X147318363Y-114639017D01*
X147020983Y-114341637D01*
X146671302Y-114107988D01*
X146282756Y-113947047D01*
X145870279Y-113865000D01*
X145449721Y-113865000D01*
X145037244Y-113947047D01*
X144648698Y-114107988D01*
X144299017Y-114341637D01*
X144001637Y-114639017D01*
X143767988Y-114988698D01*
X143607047Y-115377244D01*
X143525000Y-115789721D01*
X142705027Y-115789721D01*
X142675334Y-115539549D01*
X142545243Y-115139617D01*
X142387214Y-114843962D01*
X142071653Y-114687952D01*
X140759605Y-116000000D01*
X140400395Y-116000000D01*
X139088347Y-114687952D01*
X138772786Y-114843962D01*
X138581980Y-115218745D01*
X138467956Y-115623551D01*
X138435098Y-116042824D01*
X137638072Y-116042824D01*
X137638072Y-114508347D01*
X139267952Y-114508347D01*
X140580000Y-115820395D01*
X141892048Y-114508347D01*
X141736038Y-114192786D01*
X141361255Y-114001980D01*
X140956449Y-113887956D01*
X140537176Y-113855098D01*
X140119549Y-113904666D01*
X139719617Y-114034757D01*
X139423962Y-114192786D01*
X139267952Y-114508347D01*
X137638072Y-114508347D01*
X137638072Y-114500000D01*
X137625812Y-114375518D01*
X137589502Y-114255820D01*
X137530537Y-114145506D01*
X137451185Y-114048815D01*
X137354494Y-113969463D01*
X137244180Y-113910498D01*
X137124482Y-113874188D01*
X137000000Y-113861928D01*
X134000000Y-113861928D01*
X133875518Y-113874188D01*
X133755820Y-113910498D01*
X133645506Y-113969463D01*
X133548815Y-114048815D01*
X133469463Y-114145506D01*
X133410498Y-114255820D01*
X133374188Y-114375518D01*
X133361928Y-114500000D01*
X130472136Y-114500000D01*
X129972784Y-114293162D01*
X129328469Y-114165000D01*
X128671531Y-114165000D01*
X128027216Y-114293162D01*
X127420285Y-114544561D01*
X126874061Y-114909536D01*
X126409536Y-115374061D01*
X126235000Y-115635273D01*
X126235000Y-107369721D01*
X128365000Y-107369721D01*
X128365000Y-107790279D01*
X128447047Y-108202756D01*
X128607988Y-108591302D01*
X128841637Y-108940983D01*
X129139017Y-109238363D01*
X129488698Y-109472012D01*
X129877244Y-109632953D01*
X130289721Y-109715000D01*
X130710279Y-109715000D01*
X131122756Y-109632953D01*
X131511302Y-109472012D01*
X131860983Y-109238363D01*
X132158363Y-108940983D01*
X132392012Y-108591302D01*
X132552953Y-108202756D01*
X132635000Y-107790279D01*
X132635000Y-107369721D01*
X132552953Y-106957244D01*
X132392012Y-106568698D01*
X132158363Y-106219017D01*
X131860983Y-105921637D01*
X131511302Y-105687988D01*
X131122756Y-105527047D01*
X130710279Y-105445000D01*
X130289721Y-105445000D01*
X129877244Y-105527047D01*
X129488698Y-105687988D01*
X129139017Y-105921637D01*
X128841637Y-106219017D01*
X128607988Y-106568698D01*
X128447047Y-106957244D01*
X128365000Y-107369721D01*
X126235000Y-107369721D01*
X126235000Y-101000000D01*
X128361928Y-101000000D01*
X128361928Y-104000000D01*
X128374188Y-104124482D01*
X128410498Y-104244180D01*
X128469463Y-104354494D01*
X128548815Y-104451185D01*
X128645506Y-104530537D01*
X128755820Y-104589502D01*
X128875518Y-104625812D01*
X129000000Y-104638072D01*
X132000000Y-104638072D01*
X132124482Y-104625812D01*
X132244180Y-104589502D01*
X132354494Y-104530537D01*
X132451185Y-104451185D01*
X132530537Y-104354494D01*
X132589502Y-104244180D01*
X132625812Y-104124482D01*
X132638072Y-104000000D01*
X132638072Y-102744877D01*
X134732952Y-100649998D01*
X134797239Y-100597239D01*
X134849998Y-100532952D01*
X134850002Y-100532948D01*
X135007805Y-100340665D01*
X135132856Y-100106709D01*
X135164268Y-100047941D01*
X135260619Y-99730318D01*
X135285000Y-99482770D01*
X135285000Y-99482760D01*
X135293151Y-99400001D01*
X135285000Y-99317241D01*
X135285000Y-86897949D01*
X136577950Y-85605000D01*
X139214132Y-85605000D01*
X138097899Y-86721234D01*
X137940665Y-86592196D01*
X137647941Y-86435732D01*
X137330318Y-86339381D01*
X137000000Y-86306848D01*
X136669683Y-86339381D01*
X136352060Y-86435732D01*
X136059336Y-86592196D01*
X135802762Y-86802761D01*
X135592197Y-87059335D01*
X135435733Y-87352059D01*
X135339382Y-87669682D01*
X135315001Y-87917230D01*
X135315000Y-99582769D01*
X135339381Y-99830317D01*
X135435732Y-100147940D01*
X135592196Y-100440664D01*
X135802761Y-100697239D01*
X136059335Y-100907804D01*
X136352059Y-101064268D01*
X136669682Y-101160619D01*
X137000000Y-101193152D01*
X137330317Y-101160619D01*
X137647940Y-101064268D01*
X137815010Y-100974967D01*
X137815010Y-103068991D01*
X137810970Y-103110010D01*
X137815010Y-103151028D01*
X137827092Y-103273698D01*
X137874838Y-103431096D01*
X137952374Y-103576155D01*
X138056719Y-103703301D01*
X138088589Y-103729456D01*
X149041193Y-114682062D01*
X149015000Y-114813740D01*
X149015000Y-115106260D01*
X149072068Y-115393158D01*
X149184010Y-115663411D01*
X149346525Y-115906632D01*
X149478380Y-116038487D01*
X149405820Y-116060498D01*
X149295506Y-116119463D01*
X149198815Y-116198815D01*
X149119463Y-116295506D01*
X149060498Y-116405820D01*
X149024188Y-116525518D01*
X149011928Y-116650000D01*
X149011928Y-118350000D01*
X149024188Y-118474482D01*
X149060498Y-118594180D01*
X149119463Y-118704494D01*
X149198815Y-118801185D01*
X149295506Y-118880537D01*
X149405820Y-118939502D01*
X149525518Y-118975812D01*
X149650000Y-118988072D01*
X151350000Y-118988072D01*
X151474482Y-118975812D01*
X151594180Y-118939502D01*
X151704494Y-118880537D01*
X151801185Y-118801185D01*
X151880537Y-118704494D01*
X151939502Y-118594180D01*
X151975812Y-118474482D01*
X151988072Y-118350000D01*
X151988072Y-116650000D01*
X151975812Y-116525518D01*
X151939502Y-116405820D01*
X151880537Y-116295506D01*
X151801185Y-116198815D01*
X151704494Y-116119463D01*
X151594180Y-116060498D01*
X151521620Y-116038487D01*
X151653475Y-115906632D01*
X151815990Y-115663411D01*
X151927932Y-115393158D01*
X151985000Y-115106260D01*
X151985000Y-114813740D01*
X151927932Y-114526842D01*
X151815990Y-114256589D01*
X151653475Y-114013368D01*
X151446632Y-113806525D01*
X151203411Y-113644010D01*
X150933158Y-113532068D01*
X150646260Y-113475000D01*
X150353740Y-113475000D01*
X150222062Y-113501193D01*
X139485010Y-102764143D01*
X139485010Y-100150000D01*
X142011928Y-100150000D01*
X142011928Y-101850000D01*
X142024188Y-101974482D01*
X142060498Y-102094180D01*
X142119463Y-102204494D01*
X142198815Y-102301185D01*
X142295506Y-102380537D01*
X142405820Y-102439502D01*
X142525518Y-102475812D01*
X142650000Y-102488072D01*
X144350000Y-102488072D01*
X144474482Y-102475812D01*
X144594180Y-102439502D01*
X144704494Y-102380537D01*
X144801185Y-102301185D01*
X144880537Y-102204494D01*
X144939502Y-102094180D01*
X144975812Y-101974482D01*
X144988072Y-101850000D01*
X144988072Y-100150000D01*
X144975812Y-100025518D01*
X144939502Y-99905820D01*
X144880537Y-99795506D01*
X144801185Y-99698815D01*
X144704494Y-99619463D01*
X144594180Y-99560498D01*
X144521620Y-99538487D01*
X144653475Y-99406632D01*
X144815990Y-99163411D01*
X144927932Y-98893158D01*
X144985000Y-98606260D01*
X144985000Y-98313740D01*
X144927932Y-98026842D01*
X144815990Y-97756589D01*
X144653475Y-97513368D01*
X144446632Y-97306525D01*
X144203411Y-97144010D01*
X143933158Y-97032068D01*
X143646260Y-96975000D01*
X143353740Y-96975000D01*
X143066842Y-97032068D01*
X142796589Y-97144010D01*
X142553368Y-97306525D01*
X142346525Y-97513368D01*
X142184010Y-97756589D01*
X142072068Y-98026842D01*
X142015000Y-98313740D01*
X142015000Y-98606260D01*
X142072068Y-98893158D01*
X142184010Y-99163411D01*
X142346525Y-99406632D01*
X142478380Y-99538487D01*
X142405820Y-99560498D01*
X142295506Y-99619463D01*
X142198815Y-99698815D01*
X142119463Y-99795506D01*
X142060498Y-99905820D01*
X142024188Y-100025518D01*
X142011928Y-100150000D01*
X139485010Y-100150000D01*
X139485010Y-89810000D01*
X140551928Y-89810000D01*
X140564188Y-89934482D01*
X140600498Y-90054180D01*
X140659463Y-90164494D01*
X140738815Y-90261185D01*
X140835506Y-90340537D01*
X140945820Y-90399502D01*
X141065518Y-90435812D01*
X141190000Y-90448072D01*
X141714250Y-90445000D01*
X141873000Y-90286250D01*
X141873000Y-89127000D01*
X140713750Y-89127000D01*
X140555000Y-89285750D01*
X140551928Y-89810000D01*
X139485010Y-89810000D01*
X139485010Y-88190000D01*
X140551928Y-88190000D01*
X140555000Y-88714250D01*
X140713750Y-88873000D01*
X141873000Y-88873000D01*
X141873000Y-87713750D01*
X142127000Y-87713750D01*
X142127000Y-88873000D01*
X142147000Y-88873000D01*
X142147000Y-89127000D01*
X142127000Y-89127000D01*
X142127000Y-90286250D01*
X142285750Y-90445000D01*
X142810000Y-90448072D01*
X142934482Y-90435812D01*
X143054180Y-90399502D01*
X143164494Y-90340537D01*
X143261185Y-90261185D01*
X143340537Y-90164494D01*
X143399502Y-90054180D01*
X143434679Y-89938218D01*
X143618866Y-90122405D01*
X143855536Y-90280543D01*
X144118509Y-90389470D01*
X144397680Y-90445000D01*
X144682320Y-90445000D01*
X144961491Y-90389470D01*
X145224464Y-90280543D01*
X145461134Y-90122405D01*
X145662405Y-89921134D01*
X145810000Y-89700243D01*
X145957595Y-89921134D01*
X146158866Y-90122405D01*
X146245000Y-90179958D01*
X146245001Y-104038971D01*
X146240960Y-104080000D01*
X146257082Y-104243688D01*
X146304828Y-104401086D01*
X146382364Y-104546145D01*
X146382365Y-104546146D01*
X146486710Y-104673291D01*
X146518574Y-104699441D01*
X153545000Y-111725868D01*
X153545001Y-116271934D01*
X153433368Y-116346525D01*
X153226525Y-116553368D01*
X153064010Y-116796589D01*
X152952068Y-117066842D01*
X152895000Y-117353740D01*
X152895000Y-117646260D01*
X152952068Y-117933158D01*
X153064010Y-118203411D01*
X153226525Y-118446632D01*
X153433368Y-118653475D01*
X153676589Y-118815990D01*
X153946842Y-118927932D01*
X154233740Y-118985000D01*
X154526260Y-118985000D01*
X154813158Y-118927932D01*
X155083411Y-118815990D01*
X155326632Y-118653475D01*
X155533475Y-118446632D01*
X155650000Y-118272240D01*
X155766525Y-118446632D01*
X155973368Y-118653475D01*
X156216589Y-118815990D01*
X156486842Y-118927932D01*
X156773740Y-118985000D01*
X157066260Y-118985000D01*
X157353158Y-118927932D01*
X157623411Y-118815990D01*
X157866632Y-118653475D01*
X158073475Y-118446632D01*
X158190000Y-118272240D01*
X158306525Y-118446632D01*
X158513368Y-118653475D01*
X158756589Y-118815990D01*
X159026842Y-118927932D01*
X159313740Y-118985000D01*
X159606260Y-118985000D01*
X159893158Y-118927932D01*
X160163411Y-118815990D01*
X160406632Y-118653475D01*
X160538487Y-118521620D01*
X160560498Y-118594180D01*
X160619463Y-118704494D01*
X160698815Y-118801185D01*
X160795506Y-118880537D01*
X160905820Y-118939502D01*
X161025518Y-118975812D01*
X161150000Y-118988072D01*
X162850000Y-118988072D01*
X162974482Y-118975812D01*
X163094180Y-118939502D01*
X163204494Y-118880537D01*
X163301185Y-118801185D01*
X163380537Y-118704494D01*
X163439502Y-118594180D01*
X163475812Y-118474482D01*
X163488072Y-118350000D01*
X163488072Y-116650000D01*
X163475812Y-116525518D01*
X163439502Y-116405820D01*
X163380537Y-116295506D01*
X163301185Y-116198815D01*
X163204494Y-116119463D01*
X163094180Y-116060498D01*
X162974482Y-116024188D01*
X162850000Y-116011928D01*
X162835000Y-116011928D01*
X162835000Y-114845867D01*
X164220413Y-113460454D01*
X164287314Y-113447147D01*
X164466572Y-113372896D01*
X164627901Y-113265099D01*
X164765099Y-113127901D01*
X164872896Y-112966572D01*
X164947147Y-112787314D01*
X164985000Y-112597014D01*
X164985000Y-112593866D01*
X165165001Y-112773867D01*
X165165000Y-113731935D01*
X165053368Y-113806525D01*
X164846525Y-114013368D01*
X164684010Y-114256589D01*
X164572068Y-114526842D01*
X164515000Y-114813740D01*
X164515000Y-115106260D01*
X164572068Y-115393158D01*
X164684010Y-115663411D01*
X164846525Y-115906632D01*
X164978380Y-116038487D01*
X164905820Y-116060498D01*
X164795506Y-116119463D01*
X164698815Y-116198815D01*
X164619463Y-116295506D01*
X164560498Y-116405820D01*
X164524188Y-116525518D01*
X164511928Y-116650000D01*
X164511928Y-118350000D01*
X164524188Y-118474482D01*
X164560498Y-118594180D01*
X164619463Y-118704494D01*
X164698815Y-118801185D01*
X164795506Y-118880537D01*
X164905820Y-118939502D01*
X165025518Y-118975812D01*
X165150000Y-118988072D01*
X166850000Y-118988072D01*
X166974482Y-118975812D01*
X167094180Y-118939502D01*
X167204494Y-118880537D01*
X167301185Y-118801185D01*
X167380537Y-118704494D01*
X167439502Y-118594180D01*
X167475812Y-118474482D01*
X167488072Y-118350000D01*
X167488072Y-116650000D01*
X167475812Y-116525518D01*
X167439502Y-116405820D01*
X167380537Y-116295506D01*
X167301185Y-116198815D01*
X167204494Y-116119463D01*
X167094180Y-116060498D01*
X167021620Y-116038487D01*
X167153475Y-115906632D01*
X167315990Y-115663411D01*
X167427932Y-115393158D01*
X167485000Y-115106260D01*
X167485000Y-114813740D01*
X167427932Y-114526842D01*
X167315990Y-114256589D01*
X167153475Y-114013368D01*
X166946632Y-113806525D01*
X166835000Y-113731935D01*
X166835000Y-112469005D01*
X166839039Y-112427997D01*
X166835000Y-112386989D01*
X166835000Y-112386979D01*
X166822918Y-112264309D01*
X166775172Y-112106911D01*
X166697636Y-111961852D01*
X166593291Y-111834707D01*
X166561427Y-111808557D01*
X165810336Y-111057467D01*
X165833428Y-111072896D01*
X166012686Y-111147147D01*
X166202986Y-111185000D01*
X166397014Y-111185000D01*
X166587314Y-111147147D01*
X166766572Y-111072896D01*
X166927901Y-110965099D01*
X167065099Y-110827901D01*
X167172896Y-110666572D01*
X167247147Y-110487314D01*
X167285000Y-110297014D01*
X167285000Y-110102986D01*
X167247147Y-109912686D01*
X167172896Y-109733428D01*
X167135000Y-109676713D01*
X167135000Y-107341007D01*
X167139039Y-107299999D01*
X167135000Y-107258991D01*
X167135000Y-107258981D01*
X167122918Y-107136311D01*
X167075172Y-106978913D01*
X166997636Y-106833854D01*
X166893291Y-106706709D01*
X166861426Y-106680558D01*
X166180868Y-106000000D01*
X168361928Y-106000000D01*
X168361928Y-109000000D01*
X168374188Y-109124482D01*
X168410498Y-109244180D01*
X168469463Y-109354494D01*
X168548815Y-109451185D01*
X168645506Y-109530537D01*
X168755820Y-109589502D01*
X168875518Y-109625812D01*
X169000000Y-109638072D01*
X172000000Y-109638072D01*
X172124482Y-109625812D01*
X172244180Y-109589502D01*
X172354494Y-109530537D01*
X172451185Y-109451185D01*
X172530537Y-109354494D01*
X172589502Y-109244180D01*
X172625812Y-109124482D01*
X172638072Y-109000000D01*
X172638072Y-106000000D01*
X172625812Y-105875518D01*
X172589502Y-105755820D01*
X172530537Y-105645506D01*
X172451185Y-105548815D01*
X172354494Y-105469463D01*
X172244180Y-105410498D01*
X172124482Y-105374188D01*
X172000000Y-105361928D01*
X169000000Y-105361928D01*
X168875518Y-105374188D01*
X168755820Y-105410498D01*
X168645506Y-105469463D01*
X168548815Y-105548815D01*
X168469463Y-105645506D01*
X168410498Y-105755820D01*
X168374188Y-105875518D01*
X168361928Y-106000000D01*
X166180868Y-106000000D01*
X166035011Y-105854144D01*
X166035011Y-92037643D01*
X166039051Y-91996625D01*
X166029884Y-91903554D01*
X166022929Y-91832936D01*
X165975183Y-91675538D01*
X165897647Y-91530479D01*
X165793302Y-91403334D01*
X165761444Y-91377189D01*
X163885010Y-89500757D01*
X163885010Y-89341522D01*
X164043043Y-89425992D01*
X168815000Y-94197950D01*
X168815001Y-101098881D01*
X168607988Y-101408698D01*
X168447047Y-101797244D01*
X168365000Y-102209721D01*
X168365000Y-102630279D01*
X168447047Y-103042756D01*
X168607988Y-103431302D01*
X168841637Y-103780983D01*
X169139017Y-104078363D01*
X169488698Y-104312012D01*
X169877244Y-104472953D01*
X170289721Y-104555000D01*
X170710279Y-104555000D01*
X171122756Y-104472953D01*
X171511302Y-104312012D01*
X171860983Y-104078363D01*
X172158363Y-103780983D01*
X172392012Y-103431302D01*
X172552953Y-103042756D01*
X172635000Y-102630279D01*
X172635000Y-102209721D01*
X172552953Y-101797244D01*
X172392012Y-101408698D01*
X172185000Y-101098882D01*
X172185000Y-93582759D01*
X172193151Y-93500000D01*
X172185000Y-93417241D01*
X172185000Y-93417230D01*
X172160619Y-93169682D01*
X172064268Y-92852059D01*
X172021367Y-92771797D01*
X171907805Y-92559335D01*
X171750002Y-92367052D01*
X171749998Y-92367048D01*
X171697239Y-92302761D01*
X171632953Y-92250003D01*
X166116555Y-86733606D01*
X166063793Y-86669315D01*
X165807219Y-86458750D01*
X165807220Y-86458750D01*
X165807218Y-86458749D01*
X165706678Y-86405010D01*
X165523533Y-86307117D01*
X162083468Y-82867053D01*
X162030705Y-82802761D01*
X161774131Y-82592196D01*
X161774132Y-82592196D01*
X161774130Y-82592195D01*
X161624459Y-82512195D01*
X161481407Y-82435732D01*
X161163784Y-82339381D01*
X160916236Y-82315000D01*
X160916225Y-82315000D01*
X160833466Y-82306849D01*
X160750707Y-82315000D01*
X159023663Y-82315000D01*
X158840317Y-82259382D01*
X158510000Y-82226849D01*
X158179683Y-82259382D01*
X157862059Y-82355733D01*
X157569336Y-82512195D01*
X157312761Y-82722761D01*
X157102195Y-82979336D01*
X157091982Y-82998443D01*
X156891134Y-82797595D01*
X156654464Y-82639457D01*
X156391491Y-82530530D01*
X156112320Y-82475000D01*
X155827680Y-82475000D01*
X155548509Y-82530530D01*
X155285536Y-82639457D01*
X155048866Y-82797595D01*
X154847595Y-82998866D01*
X154700000Y-83219757D01*
X154552405Y-82998866D01*
X154351134Y-82797595D01*
X154114464Y-82639457D01*
X153851491Y-82530530D01*
X153572320Y-82475000D01*
X153287680Y-82475000D01*
X153008509Y-82530530D01*
X152745536Y-82639457D01*
X152508866Y-82797595D01*
X152307595Y-82998866D01*
X152160034Y-83219706D01*
X152134832Y-83172556D01*
X151889843Y-83099762D01*
X151069605Y-83920000D01*
X151889843Y-84740238D01*
X152134832Y-84667444D01*
X152158363Y-84617793D01*
X152307595Y-84841134D01*
X152508866Y-85042405D01*
X152595001Y-85099958D01*
X152595001Y-85388972D01*
X152590960Y-85430000D01*
X152607082Y-85593688D01*
X152654828Y-85751086D01*
X152729666Y-85891097D01*
X152732365Y-85896146D01*
X152836710Y-86023291D01*
X152868574Y-86049441D01*
X154380559Y-87561426D01*
X154400881Y-87586189D01*
X154278509Y-87610530D01*
X154015536Y-87719457D01*
X153778866Y-87877595D01*
X153577595Y-88078866D01*
X153430000Y-88299757D01*
X153282405Y-88078866D01*
X153081134Y-87877595D01*
X152844464Y-87719457D01*
X152581491Y-87610530D01*
X152302320Y-87555000D01*
X152017680Y-87555000D01*
X151738509Y-87610530D01*
X151475536Y-87719457D01*
X151238866Y-87877595D01*
X151037595Y-88078866D01*
X150890000Y-88299757D01*
X150742405Y-88078866D01*
X150541134Y-87877595D01*
X150304464Y-87719457D01*
X150041491Y-87610530D01*
X149762320Y-87555000D01*
X149477680Y-87555000D01*
X149198509Y-87610530D01*
X148935536Y-87719457D01*
X148698866Y-87877595D01*
X148497595Y-88078866D01*
X148350000Y-88299757D01*
X148202405Y-88078866D01*
X148001134Y-87877595D01*
X147764464Y-87719457D01*
X147501491Y-87610530D01*
X147222320Y-87555000D01*
X146937680Y-87555000D01*
X146658509Y-87610530D01*
X146395536Y-87719457D01*
X146158866Y-87877595D01*
X145957595Y-88078866D01*
X145810000Y-88299757D01*
X145662405Y-88078866D01*
X145461134Y-87877595D01*
X145224464Y-87719457D01*
X144961491Y-87610530D01*
X144682320Y-87555000D01*
X144397680Y-87555000D01*
X144118509Y-87610530D01*
X143855536Y-87719457D01*
X143618866Y-87877595D01*
X143434679Y-88061782D01*
X143399502Y-87945820D01*
X143340537Y-87835506D01*
X143261185Y-87738815D01*
X143164494Y-87659463D01*
X143054180Y-87600498D01*
X142934482Y-87564188D01*
X142810000Y-87551928D01*
X142285750Y-87555000D01*
X142127000Y-87713750D01*
X141873000Y-87713750D01*
X141714250Y-87555000D01*
X141190000Y-87551928D01*
X141065518Y-87564188D01*
X140945820Y-87600498D01*
X140835506Y-87659463D01*
X140738815Y-87738815D01*
X140659463Y-87835506D01*
X140600498Y-87945820D01*
X140564188Y-88065518D01*
X140551928Y-88190000D01*
X139485010Y-88190000D01*
X139485010Y-87695857D01*
X140775859Y-86405010D01*
X146658972Y-86405010D01*
X146699990Y-86409050D01*
X146741008Y-86405010D01*
X146741009Y-86405010D01*
X146863679Y-86392928D01*
X147021077Y-86345182D01*
X147166136Y-86267646D01*
X147293281Y-86163301D01*
X147319436Y-86131431D01*
X148106078Y-85344790D01*
X148207680Y-85365000D01*
X148492320Y-85365000D01*
X148771491Y-85309470D01*
X149034464Y-85200543D01*
X149271134Y-85042405D01*
X149393696Y-84919843D01*
X150069762Y-84919843D01*
X150142556Y-85164832D01*
X150399773Y-85286733D01*
X150675829Y-85356110D01*
X150960115Y-85370298D01*
X151241706Y-85328752D01*
X151509783Y-85233068D01*
X151637444Y-85164832D01*
X151710238Y-84919843D01*
X150890000Y-84099605D01*
X150069762Y-84919843D01*
X149393696Y-84919843D01*
X149472405Y-84841134D01*
X149619966Y-84620294D01*
X149645168Y-84667444D01*
X149890157Y-84740238D01*
X150710395Y-83920000D01*
X149890157Y-83099762D01*
X149645168Y-83172556D01*
X149621637Y-83222207D01*
X149472405Y-82998866D01*
X149393696Y-82920157D01*
X150069762Y-82920157D01*
X150890000Y-83740395D01*
X151710238Y-82920157D01*
X151637444Y-82675168D01*
X151380227Y-82553267D01*
X151104171Y-82483890D01*
X150819885Y-82469702D01*
X150538294Y-82511248D01*
X150270217Y-82606932D01*
X150142556Y-82675168D01*
X150069762Y-82920157D01*
X149393696Y-82920157D01*
X149271134Y-82797595D01*
X149034464Y-82639457D01*
X148771491Y-82530530D01*
X148492320Y-82475000D01*
X148207680Y-82475000D01*
X147928509Y-82530530D01*
X147665536Y-82639457D01*
X147495000Y-82753406D01*
X147495000Y-79587949D01*
X150397950Y-76685000D01*
X159239345Y-76685000D01*
X159114880Y-76809465D01*
X158961995Y-77038273D01*
X158856686Y-77292510D01*
X158803000Y-77562408D01*
X158803000Y-77837592D01*
X158856686Y-78107490D01*
X158961995Y-78361727D01*
X159114880Y-78590535D01*
X159309465Y-78785120D01*
X159538273Y-78938005D01*
X159792510Y-79043314D01*
X160062408Y-79097000D01*
X160337592Y-79097000D01*
X160607490Y-79043314D01*
X160861727Y-78938005D01*
X161090535Y-78785120D01*
X161285120Y-78590535D01*
X161438005Y-78361727D01*
X161543314Y-78107490D01*
X161597000Y-77837592D01*
X161597000Y-77562408D01*
X161543314Y-77292510D01*
X161438005Y-77038273D01*
X161285120Y-76809465D01*
X161160655Y-76685000D01*
X164502051Y-76685000D01*
X169815000Y-81997950D01*
X169815000Y-82667231D01*
X169815001Y-88282770D01*
X169839382Y-88530318D01*
X169935733Y-88847941D01*
X170092197Y-89140665D01*
X170302762Y-89397239D01*
X170559336Y-89607804D01*
X170852060Y-89764268D01*
X171169683Y-89860619D01*
X171500000Y-89893152D01*
X171830318Y-89860619D01*
X172147941Y-89764268D01*
X172440665Y-89607804D01*
X172697239Y-89397239D01*
X172907804Y-89140665D01*
X173064268Y-88847941D01*
X173160619Y-88530318D01*
X173185000Y-88282770D01*
X173185000Y-81382758D01*
X173193151Y-81299999D01*
X173185000Y-81217240D01*
X173185000Y-81217230D01*
X173160619Y-80969682D01*
X173064268Y-80652059D01*
X172907805Y-80359336D01*
X172907804Y-80359334D01*
X172750001Y-80167051D01*
X172749998Y-80167048D01*
X172697239Y-80102761D01*
X172632953Y-80050003D01*
X166450003Y-73867054D01*
X166397239Y-73802761D01*
X166140665Y-73592196D01*
X166140666Y-73592196D01*
X166140664Y-73592195D01*
X166019096Y-73527216D01*
X165847941Y-73435732D01*
X165530318Y-73339381D01*
X165282770Y-73315000D01*
X165282759Y-73315000D01*
X165200000Y-73306849D01*
X165117241Y-73315000D01*
X149782759Y-73315000D01*
X149700000Y-73306849D01*
X149617241Y-73315000D01*
X149617230Y-73315000D01*
X149369682Y-73339381D01*
X149052059Y-73435732D01*
X148759335Y-73592195D01*
X148567052Y-73749998D01*
X148567048Y-73750002D01*
X148502761Y-73802761D01*
X148450002Y-73867048D01*
X144677049Y-77640002D01*
X144612762Y-77692761D01*
X144560003Y-77757048D01*
X144559998Y-77757053D01*
X144402195Y-77949336D01*
X144245733Y-78242059D01*
X144149382Y-78559683D01*
X144116849Y-78890000D01*
X144125001Y-78972769D01*
X144125000Y-82466407D01*
X143917941Y-82355732D01*
X143600318Y-82259381D01*
X143352770Y-82235000D01*
X135962759Y-82235000D01*
X135880000Y-82226849D01*
X135797240Y-82235000D01*
X135797230Y-82235000D01*
X135549682Y-82259381D01*
X135232059Y-82355732D01*
X134939335Y-82512195D01*
X134747052Y-82669998D01*
X134747048Y-82670002D01*
X134682761Y-82722761D01*
X134630002Y-82787048D01*
X132467053Y-84949998D01*
X132402761Y-85002761D01*
X132349998Y-85067053D01*
X132192195Y-85259336D01*
X132085431Y-85459080D01*
X132035732Y-85552060D01*
X131939381Y-85869683D01*
X131915000Y-86117231D01*
X131915000Y-86117241D01*
X131906849Y-86200000D01*
X131915000Y-86282760D01*
X131915001Y-98702049D01*
X130255123Y-100361928D01*
X129000000Y-100361928D01*
X128875518Y-100374188D01*
X128755820Y-100410498D01*
X128645506Y-100469463D01*
X128548815Y-100548815D01*
X128469463Y-100645506D01*
X128410498Y-100755820D01*
X128374188Y-100875518D01*
X128361928Y-101000000D01*
X126235000Y-101000000D01*
X126235000Y-76364727D01*
X126409536Y-76625939D01*
X126874061Y-77090464D01*
X127420285Y-77455439D01*
X128027216Y-77706838D01*
X128671531Y-77835000D01*
X129328469Y-77835000D01*
X129972784Y-77706838D01*
X130321468Y-77562408D01*
X140303000Y-77562408D01*
X140303000Y-77837592D01*
X140356686Y-78107490D01*
X140461995Y-78361727D01*
X140614880Y-78590535D01*
X140809465Y-78785120D01*
X141038273Y-78938005D01*
X141292510Y-79043314D01*
X141562408Y-79097000D01*
X141837592Y-79097000D01*
X142107490Y-79043314D01*
X142361727Y-78938005D01*
X142590535Y-78785120D01*
X142785120Y-78590535D01*
X142938005Y-78361727D01*
X143043314Y-78107490D01*
X143097000Y-77837592D01*
X143097000Y-77562408D01*
X143043314Y-77292510D01*
X142938005Y-77038273D01*
X142785120Y-76809465D01*
X142590535Y-76614880D01*
X142361727Y-76461995D01*
X142107490Y-76356686D01*
X141837592Y-76303000D01*
X141562408Y-76303000D01*
X141292510Y-76356686D01*
X141038273Y-76461995D01*
X140809465Y-76614880D01*
X140614880Y-76809465D01*
X140461995Y-77038273D01*
X140356686Y-77292510D01*
X140303000Y-77562408D01*
X130321468Y-77562408D01*
X130579715Y-77455439D01*
X131125939Y-77090464D01*
X131590464Y-76625939D01*
X131955439Y-76079715D01*
X132206838Y-75472784D01*
X132335000Y-74828469D01*
X132335000Y-74171531D01*
X132206838Y-73527216D01*
X131955439Y-72920285D01*
X131590464Y-72374061D01*
X131125939Y-71909536D01*
X130864727Y-71735000D01*
X170135273Y-71735000D01*
X169874061Y-71909536D01*
%TA.AperFunction,Conductor*%
D24*
G36*
X169874061Y-71909536D02*
G01*
X169409536Y-72374061D01*
X169044561Y-72920285D01*
X168793162Y-73527216D01*
X168665000Y-74171531D01*
X168665000Y-74828469D01*
X168793162Y-75472784D01*
X169044561Y-76079715D01*
X169409536Y-76625939D01*
X169874061Y-77090464D01*
X170420285Y-77455439D01*
X171027216Y-77706838D01*
X171671531Y-77835000D01*
X172328469Y-77835000D01*
X172972784Y-77706838D01*
X173579715Y-77455439D01*
X174125939Y-77090464D01*
X174590464Y-76625939D01*
X174765000Y-76364727D01*
X174765001Y-115635274D01*
X174590464Y-115374061D01*
X174125939Y-114909536D01*
X173579715Y-114544561D01*
X172972784Y-114293162D01*
X172328469Y-114165000D01*
X171671531Y-114165000D01*
X171027216Y-114293162D01*
X170420285Y-114544561D01*
X169874061Y-114909536D01*
X169409536Y-115374061D01*
X169044561Y-115920285D01*
X168793162Y-116527216D01*
X168665000Y-117171531D01*
X168665000Y-117828469D01*
X168793162Y-118472784D01*
X169044561Y-119079715D01*
X169409536Y-119625939D01*
X169874061Y-120090464D01*
X170135273Y-120265000D01*
X130864727Y-120265000D01*
X131125939Y-120090464D01*
X131590464Y-119625939D01*
X131955439Y-119079715D01*
X132206838Y-118472784D01*
X132335000Y-117828469D01*
X132335000Y-117171531D01*
X132206838Y-116527216D01*
X131955439Y-115920285D01*
X131590464Y-115374061D01*
X131125939Y-114909536D01*
X130579715Y-114544561D01*
X130472136Y-114500000D01*
X133361928Y-114500000D01*
X133361928Y-117500000D01*
X133374188Y-117624482D01*
X133410498Y-117744180D01*
X133469463Y-117854494D01*
X133548815Y-117951185D01*
X133645506Y-118030537D01*
X133755820Y-118089502D01*
X133875518Y-118125812D01*
X134000000Y-118138072D01*
X137000000Y-118138072D01*
X137124482Y-118125812D01*
X137244180Y-118089502D01*
X137354494Y-118030537D01*
X137451185Y-117951185D01*
X137530537Y-117854494D01*
X137589502Y-117744180D01*
X137625812Y-117624482D01*
X137638072Y-117500000D01*
X137638072Y-117491653D01*
X139267952Y-117491653D01*
X139423962Y-117807214D01*
X139798745Y-117998020D01*
X140203551Y-118112044D01*
X140622824Y-118144902D01*
X141040451Y-118095334D01*
X141440383Y-117965243D01*
X141736038Y-117807214D01*
X141892048Y-117491653D01*
X140580000Y-116179605D01*
X139267952Y-117491653D01*
X137638072Y-117491653D01*
X137638072Y-116042824D01*
X138435098Y-116042824D01*
X138484666Y-116460451D01*
X138614757Y-116860383D01*
X138772786Y-117156038D01*
X139088347Y-117312048D01*
X140400395Y-116000000D01*
X140759605Y-116000000D01*
X142071653Y-117312048D01*
X142387214Y-117156038D01*
X142578020Y-116781255D01*
X142692044Y-116376449D01*
X142724902Y-115957176D01*
X142705027Y-115789721D01*
X143525000Y-115789721D01*
X143525000Y-116210279D01*
X143607047Y-116622756D01*
X143767988Y-117011302D01*
X144001637Y-117360983D01*
X144299017Y-117658363D01*
X144648698Y-117892012D01*
X145037244Y-118052953D01*
X145449721Y-118135000D01*
X145870279Y-118135000D01*
X146282756Y-118052953D01*
X146671302Y-117892012D01*
X147020983Y-117658363D01*
X147318363Y-117360983D01*
X147552012Y-117011302D01*
X147712953Y-116622756D01*
X147795000Y-116210279D01*
X147795000Y-115789721D01*
X147712953Y-115377244D01*
X147552012Y-114988698D01*
X147318363Y-114639017D01*
X147020983Y-114341637D01*
X146671302Y-114107988D01*
X146282756Y-113947047D01*
X145870279Y-113865000D01*
X145449721Y-113865000D01*
X145037244Y-113947047D01*
X144648698Y-114107988D01*
X144299017Y-114341637D01*
X144001637Y-114639017D01*
X143767988Y-114988698D01*
X143607047Y-115377244D01*
X143525000Y-115789721D01*
X142705027Y-115789721D01*
X142675334Y-115539549D01*
X142545243Y-115139617D01*
X142387214Y-114843962D01*
X142071653Y-114687952D01*
X140759605Y-116000000D01*
X140400395Y-116000000D01*
X139088347Y-114687952D01*
X138772786Y-114843962D01*
X138581980Y-115218745D01*
X138467956Y-115623551D01*
X138435098Y-116042824D01*
X137638072Y-116042824D01*
X137638072Y-114508347D01*
X139267952Y-114508347D01*
X140580000Y-115820395D01*
X141892048Y-114508347D01*
X141736038Y-114192786D01*
X141361255Y-114001980D01*
X140956449Y-113887956D01*
X140537176Y-113855098D01*
X140119549Y-113904666D01*
X139719617Y-114034757D01*
X139423962Y-114192786D01*
X139267952Y-114508347D01*
X137638072Y-114508347D01*
X137638072Y-114500000D01*
X137625812Y-114375518D01*
X137589502Y-114255820D01*
X137530537Y-114145506D01*
X137451185Y-114048815D01*
X137354494Y-113969463D01*
X137244180Y-113910498D01*
X137124482Y-113874188D01*
X137000000Y-113861928D01*
X134000000Y-113861928D01*
X133875518Y-113874188D01*
X133755820Y-113910498D01*
X133645506Y-113969463D01*
X133548815Y-114048815D01*
X133469463Y-114145506D01*
X133410498Y-114255820D01*
X133374188Y-114375518D01*
X133361928Y-114500000D01*
X130472136Y-114500000D01*
X129972784Y-114293162D01*
X129328469Y-114165000D01*
X128671531Y-114165000D01*
X128027216Y-114293162D01*
X127420285Y-114544561D01*
X126874061Y-114909536D01*
X126409536Y-115374061D01*
X126235000Y-115635273D01*
X126235000Y-107369721D01*
X128365000Y-107369721D01*
X128365000Y-107790279D01*
X128447047Y-108202756D01*
X128607988Y-108591302D01*
X128841637Y-108940983D01*
X129139017Y-109238363D01*
X129488698Y-109472012D01*
X129877244Y-109632953D01*
X130289721Y-109715000D01*
X130710279Y-109715000D01*
X131122756Y-109632953D01*
X131511302Y-109472012D01*
X131860983Y-109238363D01*
X132158363Y-108940983D01*
X132392012Y-108591302D01*
X132552953Y-108202756D01*
X132635000Y-107790279D01*
X132635000Y-107369721D01*
X132552953Y-106957244D01*
X132392012Y-106568698D01*
X132158363Y-106219017D01*
X131860983Y-105921637D01*
X131511302Y-105687988D01*
X131122756Y-105527047D01*
X130710279Y-105445000D01*
X130289721Y-105445000D01*
X129877244Y-105527047D01*
X129488698Y-105687988D01*
X129139017Y-105921637D01*
X128841637Y-106219017D01*
X128607988Y-106568698D01*
X128447047Y-106957244D01*
X128365000Y-107369721D01*
X126235000Y-107369721D01*
X126235000Y-101000000D01*
X128361928Y-101000000D01*
X128361928Y-104000000D01*
X128374188Y-104124482D01*
X128410498Y-104244180D01*
X128469463Y-104354494D01*
X128548815Y-104451185D01*
X128645506Y-104530537D01*
X128755820Y-104589502D01*
X128875518Y-104625812D01*
X129000000Y-104638072D01*
X132000000Y-104638072D01*
X132124482Y-104625812D01*
X132244180Y-104589502D01*
X132354494Y-104530537D01*
X132451185Y-104451185D01*
X132530537Y-104354494D01*
X132589502Y-104244180D01*
X132625812Y-104124482D01*
X132638072Y-104000000D01*
X132638072Y-102744877D01*
X134732952Y-100649998D01*
X134797239Y-100597239D01*
X134849998Y-100532952D01*
X134850002Y-100532948D01*
X135007805Y-100340665D01*
X135132856Y-100106709D01*
X135164268Y-100047941D01*
X135260619Y-99730318D01*
X135285000Y-99482770D01*
X135285000Y-99482760D01*
X135293151Y-99400001D01*
X135285000Y-99317241D01*
X135285000Y-86897949D01*
X136577950Y-85605000D01*
X139214132Y-85605000D01*
X138097899Y-86721234D01*
X137940665Y-86592196D01*
X137647941Y-86435732D01*
X137330318Y-86339381D01*
X137000000Y-86306848D01*
X136669683Y-86339381D01*
X136352060Y-86435732D01*
X136059336Y-86592196D01*
X135802762Y-86802761D01*
X135592197Y-87059335D01*
X135435733Y-87352059D01*
X135339382Y-87669682D01*
X135315001Y-87917230D01*
X135315000Y-99582769D01*
X135339381Y-99830317D01*
X135435732Y-100147940D01*
X135592196Y-100440664D01*
X135802761Y-100697239D01*
X136059335Y-100907804D01*
X136352059Y-101064268D01*
X136669682Y-101160619D01*
X137000000Y-101193152D01*
X137330317Y-101160619D01*
X137647940Y-101064268D01*
X137815010Y-100974967D01*
X137815010Y-103068991D01*
X137810970Y-103110010D01*
X137815010Y-103151028D01*
X137827092Y-103273698D01*
X137874838Y-103431096D01*
X137952374Y-103576155D01*
X138056719Y-103703301D01*
X138088589Y-103729456D01*
X149041193Y-114682062D01*
X149015000Y-114813740D01*
X149015000Y-115106260D01*
X149072068Y-115393158D01*
X149184010Y-115663411D01*
X149346525Y-115906632D01*
X149478380Y-116038487D01*
X149405820Y-116060498D01*
X149295506Y-116119463D01*
X149198815Y-116198815D01*
X149119463Y-116295506D01*
X149060498Y-116405820D01*
X149024188Y-116525518D01*
X149011928Y-116650000D01*
X149011928Y-118350000D01*
X149024188Y-118474482D01*
X149060498Y-118594180D01*
X149119463Y-118704494D01*
X149198815Y-118801185D01*
X149295506Y-118880537D01*
X149405820Y-118939502D01*
X149525518Y-118975812D01*
X149650000Y-118988072D01*
X151350000Y-118988072D01*
X151474482Y-118975812D01*
X151594180Y-118939502D01*
X151704494Y-118880537D01*
X151801185Y-118801185D01*
X151880537Y-118704494D01*
X151939502Y-118594180D01*
X151975812Y-118474482D01*
X151988072Y-118350000D01*
X151988072Y-116650000D01*
X151975812Y-116525518D01*
X151939502Y-116405820D01*
X151880537Y-116295506D01*
X151801185Y-116198815D01*
X151704494Y-116119463D01*
X151594180Y-116060498D01*
X151521620Y-116038487D01*
X151653475Y-115906632D01*
X151815990Y-115663411D01*
X151927932Y-115393158D01*
X151985000Y-115106260D01*
X151985000Y-114813740D01*
X151927932Y-114526842D01*
X151815990Y-114256589D01*
X151653475Y-114013368D01*
X151446632Y-113806525D01*
X151203411Y-113644010D01*
X150933158Y-113532068D01*
X150646260Y-113475000D01*
X150353740Y-113475000D01*
X150222062Y-113501193D01*
X139485010Y-102764143D01*
X139485010Y-100150000D01*
X142011928Y-100150000D01*
X142011928Y-101850000D01*
X142024188Y-101974482D01*
X142060498Y-102094180D01*
X142119463Y-102204494D01*
X142198815Y-102301185D01*
X142295506Y-102380537D01*
X142405820Y-102439502D01*
X142525518Y-102475812D01*
X142650000Y-102488072D01*
X144350000Y-102488072D01*
X144474482Y-102475812D01*
X144594180Y-102439502D01*
X144704494Y-102380537D01*
X144801185Y-102301185D01*
X144880537Y-102204494D01*
X144939502Y-102094180D01*
X144975812Y-101974482D01*
X144988072Y-101850000D01*
X144988072Y-100150000D01*
X144975812Y-100025518D01*
X144939502Y-99905820D01*
X144880537Y-99795506D01*
X144801185Y-99698815D01*
X144704494Y-99619463D01*
X144594180Y-99560498D01*
X144521620Y-99538487D01*
X144653475Y-99406632D01*
X144815990Y-99163411D01*
X144927932Y-98893158D01*
X144985000Y-98606260D01*
X144985000Y-98313740D01*
X144927932Y-98026842D01*
X144815990Y-97756589D01*
X144653475Y-97513368D01*
X144446632Y-97306525D01*
X144203411Y-97144010D01*
X143933158Y-97032068D01*
X143646260Y-96975000D01*
X143353740Y-96975000D01*
X143066842Y-97032068D01*
X142796589Y-97144010D01*
X142553368Y-97306525D01*
X142346525Y-97513368D01*
X142184010Y-97756589D01*
X142072068Y-98026842D01*
X142015000Y-98313740D01*
X142015000Y-98606260D01*
X142072068Y-98893158D01*
X142184010Y-99163411D01*
X142346525Y-99406632D01*
X142478380Y-99538487D01*
X142405820Y-99560498D01*
X142295506Y-99619463D01*
X142198815Y-99698815D01*
X142119463Y-99795506D01*
X142060498Y-99905820D01*
X142024188Y-100025518D01*
X142011928Y-100150000D01*
X139485010Y-100150000D01*
X139485010Y-89810000D01*
X140551928Y-89810000D01*
X140564188Y-89934482D01*
X140600498Y-90054180D01*
X140659463Y-90164494D01*
X140738815Y-90261185D01*
X140835506Y-90340537D01*
X140945820Y-90399502D01*
X141065518Y-90435812D01*
X141190000Y-90448072D01*
X141714250Y-90445000D01*
X141873000Y-90286250D01*
X141873000Y-89127000D01*
X140713750Y-89127000D01*
X140555000Y-89285750D01*
X140551928Y-89810000D01*
X139485010Y-89810000D01*
X139485010Y-88190000D01*
X140551928Y-88190000D01*
X140555000Y-88714250D01*
X140713750Y-88873000D01*
X141873000Y-88873000D01*
X141873000Y-87713750D01*
X142127000Y-87713750D01*
X142127000Y-88873000D01*
X142147000Y-88873000D01*
X142147000Y-89127000D01*
X142127000Y-89127000D01*
X142127000Y-90286250D01*
X142285750Y-90445000D01*
X142810000Y-90448072D01*
X142934482Y-90435812D01*
X143054180Y-90399502D01*
X143164494Y-90340537D01*
X143261185Y-90261185D01*
X143340537Y-90164494D01*
X143399502Y-90054180D01*
X143434679Y-89938218D01*
X143618866Y-90122405D01*
X143855536Y-90280543D01*
X144118509Y-90389470D01*
X144397680Y-90445000D01*
X144682320Y-90445000D01*
X144961491Y-90389470D01*
X145224464Y-90280543D01*
X145461134Y-90122405D01*
X145662405Y-89921134D01*
X145810000Y-89700243D01*
X145957595Y-89921134D01*
X146158866Y-90122405D01*
X146245000Y-90179958D01*
X146245001Y-104038971D01*
X146240960Y-104080000D01*
X146257082Y-104243688D01*
X146304828Y-104401086D01*
X146382364Y-104546145D01*
X146382365Y-104546146D01*
X146486710Y-104673291D01*
X146518574Y-104699441D01*
X153545000Y-111725868D01*
X153545001Y-116271934D01*
X153433368Y-116346525D01*
X153226525Y-116553368D01*
X153064010Y-116796589D01*
X152952068Y-117066842D01*
X152895000Y-117353740D01*
X152895000Y-117646260D01*
X152952068Y-117933158D01*
X153064010Y-118203411D01*
X153226525Y-118446632D01*
X153433368Y-118653475D01*
X153676589Y-118815990D01*
X153946842Y-118927932D01*
X154233740Y-118985000D01*
X154526260Y-118985000D01*
X154813158Y-118927932D01*
X155083411Y-118815990D01*
X155326632Y-118653475D01*
X155533475Y-118446632D01*
X155650000Y-118272240D01*
X155766525Y-118446632D01*
X155973368Y-118653475D01*
X156216589Y-118815990D01*
X156486842Y-118927932D01*
X156773740Y-118985000D01*
X157066260Y-118985000D01*
X157353158Y-118927932D01*
X157623411Y-118815990D01*
X157866632Y-118653475D01*
X158073475Y-118446632D01*
X158190000Y-118272240D01*
X158306525Y-118446632D01*
X158513368Y-118653475D01*
X158756589Y-118815990D01*
X159026842Y-118927932D01*
X159313740Y-118985000D01*
X159606260Y-118985000D01*
X159893158Y-118927932D01*
X160163411Y-118815990D01*
X160406632Y-118653475D01*
X160538487Y-118521620D01*
X160560498Y-118594180D01*
X160619463Y-118704494D01*
X160698815Y-118801185D01*
X160795506Y-118880537D01*
X160905820Y-118939502D01*
X161025518Y-118975812D01*
X161150000Y-118988072D01*
X162850000Y-118988072D01*
X162974482Y-118975812D01*
X163094180Y-118939502D01*
X163204494Y-118880537D01*
X163301185Y-118801185D01*
X163380537Y-118704494D01*
X163439502Y-118594180D01*
X163475812Y-118474482D01*
X163488072Y-118350000D01*
X163488072Y-116650000D01*
X163475812Y-116525518D01*
X163439502Y-116405820D01*
X163380537Y-116295506D01*
X163301185Y-116198815D01*
X163204494Y-116119463D01*
X163094180Y-116060498D01*
X162974482Y-116024188D01*
X162850000Y-116011928D01*
X162835000Y-116011928D01*
X162835000Y-114845867D01*
X164220413Y-113460454D01*
X164287314Y-113447147D01*
X164466572Y-113372896D01*
X164627901Y-113265099D01*
X164765099Y-113127901D01*
X164872896Y-112966572D01*
X164947147Y-112787314D01*
X164985000Y-112597014D01*
X164985000Y-112593866D01*
X165165001Y-112773867D01*
X165165000Y-113731935D01*
X165053368Y-113806525D01*
X164846525Y-114013368D01*
X164684010Y-114256589D01*
X164572068Y-114526842D01*
X164515000Y-114813740D01*
X164515000Y-115106260D01*
X164572068Y-115393158D01*
X164684010Y-115663411D01*
X164846525Y-115906632D01*
X164978380Y-116038487D01*
X164905820Y-116060498D01*
X164795506Y-116119463D01*
X164698815Y-116198815D01*
X164619463Y-116295506D01*
X164560498Y-116405820D01*
X164524188Y-116525518D01*
X164511928Y-116650000D01*
X164511928Y-118350000D01*
X164524188Y-118474482D01*
X164560498Y-118594180D01*
X164619463Y-118704494D01*
X164698815Y-118801185D01*
X164795506Y-118880537D01*
X164905820Y-118939502D01*
X165025518Y-118975812D01*
X165150000Y-118988072D01*
X166850000Y-118988072D01*
X166974482Y-118975812D01*
X167094180Y-118939502D01*
X167204494Y-118880537D01*
X167301185Y-118801185D01*
X167380537Y-118704494D01*
X167439502Y-118594180D01*
X167475812Y-118474482D01*
X167488072Y-118350000D01*
X167488072Y-116650000D01*
X167475812Y-116525518D01*
X167439502Y-116405820D01*
X167380537Y-116295506D01*
X167301185Y-116198815D01*
X167204494Y-116119463D01*
X167094180Y-116060498D01*
X167021620Y-116038487D01*
X167153475Y-115906632D01*
X167315990Y-115663411D01*
X167427932Y-115393158D01*
X167485000Y-115106260D01*
X167485000Y-114813740D01*
X167427932Y-114526842D01*
X167315990Y-114256589D01*
X167153475Y-114013368D01*
X166946632Y-113806525D01*
X166835000Y-113731935D01*
X166835000Y-112469005D01*
X166839039Y-112427997D01*
X166835000Y-112386989D01*
X166835000Y-112386979D01*
X166822918Y-112264309D01*
X166775172Y-112106911D01*
X166697636Y-111961852D01*
X166593291Y-111834707D01*
X166561427Y-111808557D01*
X165810336Y-111057467D01*
X165833428Y-111072896D01*
X166012686Y-111147147D01*
X166202986Y-111185000D01*
X166397014Y-111185000D01*
X166587314Y-111147147D01*
X166766572Y-111072896D01*
X166927901Y-110965099D01*
X167065099Y-110827901D01*
X167172896Y-110666572D01*
X167247147Y-110487314D01*
X167285000Y-110297014D01*
X167285000Y-110102986D01*
X167247147Y-109912686D01*
X167172896Y-109733428D01*
X167135000Y-109676713D01*
X167135000Y-107341007D01*
X167139039Y-107299999D01*
X167135000Y-107258991D01*
X167135000Y-107258981D01*
X167122918Y-107136311D01*
X167075172Y-106978913D01*
X166997636Y-106833854D01*
X166893291Y-106706709D01*
X166861426Y-106680558D01*
X166180868Y-106000000D01*
X168361928Y-106000000D01*
X168361928Y-109000000D01*
X168374188Y-109124482D01*
X168410498Y-109244180D01*
X168469463Y-109354494D01*
X168548815Y-109451185D01*
X168645506Y-109530537D01*
X168755820Y-109589502D01*
X168875518Y-109625812D01*
X169000000Y-109638072D01*
X172000000Y-109638072D01*
X172124482Y-109625812D01*
X172244180Y-109589502D01*
X172354494Y-109530537D01*
X172451185Y-109451185D01*
X172530537Y-109354494D01*
X172589502Y-109244180D01*
X172625812Y-109124482D01*
X172638072Y-109000000D01*
X172638072Y-106000000D01*
X172625812Y-105875518D01*
X172589502Y-105755820D01*
X172530537Y-105645506D01*
X172451185Y-105548815D01*
X172354494Y-105469463D01*
X172244180Y-105410498D01*
X172124482Y-105374188D01*
X172000000Y-105361928D01*
X169000000Y-105361928D01*
X168875518Y-105374188D01*
X168755820Y-105410498D01*
X168645506Y-105469463D01*
X168548815Y-105548815D01*
X168469463Y-105645506D01*
X168410498Y-105755820D01*
X168374188Y-105875518D01*
X168361928Y-106000000D01*
X166180868Y-106000000D01*
X166035011Y-105854144D01*
X166035011Y-92037643D01*
X166039051Y-91996625D01*
X166029884Y-91903554D01*
X166022929Y-91832936D01*
X165975183Y-91675538D01*
X165897647Y-91530479D01*
X165793302Y-91403334D01*
X165761444Y-91377189D01*
X163885010Y-89500757D01*
X163885010Y-89341522D01*
X164043043Y-89425992D01*
X168815000Y-94197950D01*
X168815001Y-101098881D01*
X168607988Y-101408698D01*
X168447047Y-101797244D01*
X168365000Y-102209721D01*
X168365000Y-102630279D01*
X168447047Y-103042756D01*
X168607988Y-103431302D01*
X168841637Y-103780983D01*
X169139017Y-104078363D01*
X169488698Y-104312012D01*
X169877244Y-104472953D01*
X170289721Y-104555000D01*
X170710279Y-104555000D01*
X171122756Y-104472953D01*
X171511302Y-104312012D01*
X171860983Y-104078363D01*
X172158363Y-103780983D01*
X172392012Y-103431302D01*
X172552953Y-103042756D01*
X172635000Y-102630279D01*
X172635000Y-102209721D01*
X172552953Y-101797244D01*
X172392012Y-101408698D01*
X172185000Y-101098882D01*
X172185000Y-93582759D01*
X172193151Y-93500000D01*
X172185000Y-93417241D01*
X172185000Y-93417230D01*
X172160619Y-93169682D01*
X172064268Y-92852059D01*
X172021367Y-92771797D01*
X171907805Y-92559335D01*
X171750002Y-92367052D01*
X171749998Y-92367048D01*
X171697239Y-92302761D01*
X171632953Y-92250003D01*
X166116555Y-86733606D01*
X166063793Y-86669315D01*
X165807219Y-86458750D01*
X165807220Y-86458750D01*
X165807218Y-86458749D01*
X165706678Y-86405010D01*
X165523533Y-86307117D01*
X162083468Y-82867053D01*
X162030705Y-82802761D01*
X161774131Y-82592196D01*
X161774132Y-82592196D01*
X161774130Y-82592195D01*
X161624459Y-82512195D01*
X161481407Y-82435732D01*
X161163784Y-82339381D01*
X160916236Y-82315000D01*
X160916225Y-82315000D01*
X160833466Y-82306849D01*
X160750707Y-82315000D01*
X159023663Y-82315000D01*
X158840317Y-82259382D01*
X158510000Y-82226849D01*
X158179683Y-82259382D01*
X157862059Y-82355733D01*
X157569336Y-82512195D01*
X157312761Y-82722761D01*
X157102195Y-82979336D01*
X157091982Y-82998443D01*
X156891134Y-82797595D01*
X156654464Y-82639457D01*
X156391491Y-82530530D01*
X156112320Y-82475000D01*
X155827680Y-82475000D01*
X155548509Y-82530530D01*
X155285536Y-82639457D01*
X155048866Y-82797595D01*
X154847595Y-82998866D01*
X154700000Y-83219757D01*
X154552405Y-82998866D01*
X154351134Y-82797595D01*
X154114464Y-82639457D01*
X153851491Y-82530530D01*
X153572320Y-82475000D01*
X153287680Y-82475000D01*
X153008509Y-82530530D01*
X152745536Y-82639457D01*
X152508866Y-82797595D01*
X152307595Y-82998866D01*
X152160034Y-83219706D01*
X152134832Y-83172556D01*
X151889843Y-83099762D01*
X151069605Y-83920000D01*
X151889843Y-84740238D01*
X152134832Y-84667444D01*
X152158363Y-84617793D01*
X152307595Y-84841134D01*
X152508866Y-85042405D01*
X152595001Y-85099958D01*
X152595001Y-85388972D01*
X152590960Y-85430000D01*
X152607082Y-85593688D01*
X152654828Y-85751086D01*
X152729666Y-85891097D01*
X152732365Y-85896146D01*
X152836710Y-86023291D01*
X152868574Y-86049441D01*
X154380559Y-87561426D01*
X154400881Y-87586189D01*
X154278509Y-87610530D01*
X154015536Y-87719457D01*
X153778866Y-87877595D01*
X153577595Y-88078866D01*
X153430000Y-88299757D01*
X153282405Y-88078866D01*
X153081134Y-87877595D01*
X152844464Y-87719457D01*
X152581491Y-87610530D01*
X152302320Y-87555000D01*
X152017680Y-87555000D01*
X151738509Y-87610530D01*
X151475536Y-87719457D01*
X151238866Y-87877595D01*
X151037595Y-88078866D01*
X150890000Y-88299757D01*
X150742405Y-88078866D01*
X150541134Y-87877595D01*
X150304464Y-87719457D01*
X150041491Y-87610530D01*
X149762320Y-87555000D01*
X149477680Y-87555000D01*
X149198509Y-87610530D01*
X148935536Y-87719457D01*
X148698866Y-87877595D01*
X148497595Y-88078866D01*
X148350000Y-88299757D01*
X148202405Y-88078866D01*
X148001134Y-87877595D01*
X147764464Y-87719457D01*
X147501491Y-87610530D01*
X147222320Y-87555000D01*
X146937680Y-87555000D01*
X146658509Y-87610530D01*
X146395536Y-87719457D01*
X146158866Y-87877595D01*
X145957595Y-88078866D01*
X145810000Y-88299757D01*
X145662405Y-88078866D01*
X145461134Y-87877595D01*
X145224464Y-87719457D01*
X144961491Y-87610530D01*
X144682320Y-87555000D01*
X144397680Y-87555000D01*
X144118509Y-87610530D01*
X143855536Y-87719457D01*
X143618866Y-87877595D01*
X143434679Y-88061782D01*
X143399502Y-87945820D01*
X143340537Y-87835506D01*
X143261185Y-87738815D01*
X143164494Y-87659463D01*
X143054180Y-87600498D01*
X142934482Y-87564188D01*
X142810000Y-87551928D01*
X142285750Y-87555000D01*
X142127000Y-87713750D01*
X141873000Y-87713750D01*
X141714250Y-87555000D01*
X141190000Y-87551928D01*
X141065518Y-87564188D01*
X140945820Y-87600498D01*
X140835506Y-87659463D01*
X140738815Y-87738815D01*
X140659463Y-87835506D01*
X140600498Y-87945820D01*
X140564188Y-88065518D01*
X140551928Y-88190000D01*
X139485010Y-88190000D01*
X139485010Y-87695857D01*
X140775859Y-86405010D01*
X146658972Y-86405010D01*
X146699990Y-86409050D01*
X146741008Y-86405010D01*
X146741009Y-86405010D01*
X146863679Y-86392928D01*
X147021077Y-86345182D01*
X147166136Y-86267646D01*
X147293281Y-86163301D01*
X147319436Y-86131431D01*
X148106078Y-85344790D01*
X148207680Y-85365000D01*
X148492320Y-85365000D01*
X148771491Y-85309470D01*
X149034464Y-85200543D01*
X149271134Y-85042405D01*
X149393696Y-84919843D01*
X150069762Y-84919843D01*
X150142556Y-85164832D01*
X150399773Y-85286733D01*
X150675829Y-85356110D01*
X150960115Y-85370298D01*
X151241706Y-85328752D01*
X151509783Y-85233068D01*
X151637444Y-85164832D01*
X151710238Y-84919843D01*
X150890000Y-84099605D01*
X150069762Y-84919843D01*
X149393696Y-84919843D01*
X149472405Y-84841134D01*
X149619966Y-84620294D01*
X149645168Y-84667444D01*
X149890157Y-84740238D01*
X150710395Y-83920000D01*
X149890157Y-83099762D01*
X149645168Y-83172556D01*
X149621637Y-83222207D01*
X149472405Y-82998866D01*
X149393696Y-82920157D01*
X150069762Y-82920157D01*
X150890000Y-83740395D01*
X151710238Y-82920157D01*
X151637444Y-82675168D01*
X151380227Y-82553267D01*
X151104171Y-82483890D01*
X150819885Y-82469702D01*
X150538294Y-82511248D01*
X150270217Y-82606932D01*
X150142556Y-82675168D01*
X150069762Y-82920157D01*
X149393696Y-82920157D01*
X149271134Y-82797595D01*
X149034464Y-82639457D01*
X148771491Y-82530530D01*
X148492320Y-82475000D01*
X148207680Y-82475000D01*
X147928509Y-82530530D01*
X147665536Y-82639457D01*
X147495000Y-82753406D01*
X147495000Y-79587949D01*
X150397950Y-76685000D01*
X159239345Y-76685000D01*
X159114880Y-76809465D01*
X158961995Y-77038273D01*
X158856686Y-77292510D01*
X158803000Y-77562408D01*
X158803000Y-77837592D01*
X158856686Y-78107490D01*
X158961995Y-78361727D01*
X159114880Y-78590535D01*
X159309465Y-78785120D01*
X159538273Y-78938005D01*
X159792510Y-79043314D01*
X160062408Y-79097000D01*
X160337592Y-79097000D01*
X160607490Y-79043314D01*
X160861727Y-78938005D01*
X161090535Y-78785120D01*
X161285120Y-78590535D01*
X161438005Y-78361727D01*
X161543314Y-78107490D01*
X161597000Y-77837592D01*
X161597000Y-77562408D01*
X161543314Y-77292510D01*
X161438005Y-77038273D01*
X161285120Y-76809465D01*
X161160655Y-76685000D01*
X164502051Y-76685000D01*
X169815000Y-81997950D01*
X169815000Y-82667231D01*
X169815001Y-88282770D01*
X169839382Y-88530318D01*
X169935733Y-88847941D01*
X170092197Y-89140665D01*
X170302762Y-89397239D01*
X170559336Y-89607804D01*
X170852060Y-89764268D01*
X171169683Y-89860619D01*
X171500000Y-89893152D01*
X171830318Y-89860619D01*
X172147941Y-89764268D01*
X172440665Y-89607804D01*
X172697239Y-89397239D01*
X172907804Y-89140665D01*
X173064268Y-88847941D01*
X173160619Y-88530318D01*
X173185000Y-88282770D01*
X173185000Y-81382758D01*
X173193151Y-81299999D01*
X173185000Y-81217240D01*
X173185000Y-81217230D01*
X173160619Y-80969682D01*
X173064268Y-80652059D01*
X172907805Y-80359336D01*
X172907804Y-80359334D01*
X172750001Y-80167051D01*
X172749998Y-80167048D01*
X172697239Y-80102761D01*
X172632953Y-80050003D01*
X166450003Y-73867054D01*
X166397239Y-73802761D01*
X166140665Y-73592196D01*
X166140666Y-73592196D01*
X166140664Y-73592195D01*
X166019096Y-73527216D01*
X165847941Y-73435732D01*
X165530318Y-73339381D01*
X165282770Y-73315000D01*
X165282759Y-73315000D01*
X165200000Y-73306849D01*
X165117241Y-73315000D01*
X149782759Y-73315000D01*
X149700000Y-73306849D01*
X149617241Y-73315000D01*
X149617230Y-73315000D01*
X149369682Y-73339381D01*
X149052059Y-73435732D01*
X148759335Y-73592195D01*
X148567052Y-73749998D01*
X148567048Y-73750002D01*
X148502761Y-73802761D01*
X148450002Y-73867048D01*
X144677049Y-77640002D01*
X144612762Y-77692761D01*
X144560003Y-77757048D01*
X144559998Y-77757053D01*
X144402195Y-77949336D01*
X144245733Y-78242059D01*
X144149382Y-78559683D01*
X144116849Y-78890000D01*
X144125001Y-78972769D01*
X144125000Y-82466407D01*
X143917941Y-82355732D01*
X143600318Y-82259381D01*
X143352770Y-82235000D01*
X135962759Y-82235000D01*
X135880000Y-82226849D01*
X135797240Y-82235000D01*
X135797230Y-82235000D01*
X135549682Y-82259381D01*
X135232059Y-82355732D01*
X134939335Y-82512195D01*
X134747052Y-82669998D01*
X134747048Y-82670002D01*
X134682761Y-82722761D01*
X134630002Y-82787048D01*
X132467053Y-84949998D01*
X132402761Y-85002761D01*
X132349998Y-85067053D01*
X132192195Y-85259336D01*
X132085431Y-85459080D01*
X132035732Y-85552060D01*
X131939381Y-85869683D01*
X131915000Y-86117231D01*
X131915000Y-86117241D01*
X131906849Y-86200000D01*
X131915000Y-86282760D01*
X131915001Y-98702049D01*
X130255123Y-100361928D01*
X129000000Y-100361928D01*
X128875518Y-100374188D01*
X128755820Y-100410498D01*
X128645506Y-100469463D01*
X128548815Y-100548815D01*
X128469463Y-100645506D01*
X128410498Y-100755820D01*
X128374188Y-100875518D01*
X128361928Y-101000000D01*
X126235000Y-101000000D01*
X126235000Y-76364727D01*
X126409536Y-76625939D01*
X126874061Y-77090464D01*
X127420285Y-77455439D01*
X128027216Y-77706838D01*
X128671531Y-77835000D01*
X129328469Y-77835000D01*
X129972784Y-77706838D01*
X130321468Y-77562408D01*
X140303000Y-77562408D01*
X140303000Y-77837592D01*
X140356686Y-78107490D01*
X140461995Y-78361727D01*
X140614880Y-78590535D01*
X140809465Y-78785120D01*
X141038273Y-78938005D01*
X141292510Y-79043314D01*
X141562408Y-79097000D01*
X141837592Y-79097000D01*
X142107490Y-79043314D01*
X142361727Y-78938005D01*
X142590535Y-78785120D01*
X142785120Y-78590535D01*
X142938005Y-78361727D01*
X143043314Y-78107490D01*
X143097000Y-77837592D01*
X143097000Y-77562408D01*
X143043314Y-77292510D01*
X142938005Y-77038273D01*
X142785120Y-76809465D01*
X142590535Y-76614880D01*
X142361727Y-76461995D01*
X142107490Y-76356686D01*
X141837592Y-76303000D01*
X141562408Y-76303000D01*
X141292510Y-76356686D01*
X141038273Y-76461995D01*
X140809465Y-76614880D01*
X140614880Y-76809465D01*
X140461995Y-77038273D01*
X140356686Y-77292510D01*
X140303000Y-77562408D01*
X130321468Y-77562408D01*
X130579715Y-77455439D01*
X131125939Y-77090464D01*
X131590464Y-76625939D01*
X131955439Y-76079715D01*
X132206838Y-75472784D01*
X132335000Y-74828469D01*
X132335000Y-74171531D01*
X132206838Y-73527216D01*
X131955439Y-72920285D01*
X131590464Y-72374061D01*
X131125939Y-71909536D01*
X130864727Y-71735000D01*
X170135273Y-71735000D01*
X169874061Y-71909536D01*
G37*
%TD.AperFunction*%
D23*
X161415000Y-89345868D02*
X161415001Y-90136970D01*
X161410960Y-90177998D01*
X161427082Y-90341686D01*
X161474828Y-90499084D01*
X161552364Y-90644143D01*
X161552365Y-90644144D01*
X161656710Y-90771289D01*
X161688574Y-90797439D01*
X163565001Y-92673868D01*
X163565002Y-107858972D01*
X163560961Y-107900001D01*
X163577083Y-108063689D01*
X163624829Y-108221087D01*
X163702365Y-108366146D01*
X163702366Y-108366147D01*
X163806711Y-108493292D01*
X163838574Y-108519442D01*
X164039546Y-108720413D01*
X164052853Y-108787314D01*
X164127104Y-108966572D01*
X164234901Y-109127901D01*
X164372099Y-109265099D01*
X164533428Y-109372896D01*
X164712686Y-109447147D01*
X164902986Y-109485000D01*
X165097014Y-109485000D01*
X165287314Y-109447147D01*
X165465000Y-109373547D01*
X165465000Y-109676713D01*
X165427104Y-109733428D01*
X165352853Y-109912686D01*
X165315000Y-110102986D01*
X165315000Y-110297014D01*
X165352853Y-110487314D01*
X165427104Y-110666572D01*
X165442534Y-110689664D01*
X163691448Y-108938579D01*
X163665293Y-108906709D01*
X163538148Y-108802364D01*
X163393089Y-108724828D01*
X163235691Y-108677082D01*
X163113021Y-108665000D01*
X163113020Y-108665000D01*
X163072002Y-108660960D01*
X163030984Y-108665000D01*
X158345869Y-108665000D01*
X155535000Y-105854133D01*
X155535000Y-90179958D01*
X155621134Y-90122405D01*
X155822405Y-89921134D01*
X155970000Y-89700243D01*
X156117595Y-89921134D01*
X156318866Y-90122405D01*
X156555536Y-90280543D01*
X156818509Y-90389470D01*
X157097680Y-90445000D01*
X157382320Y-90445000D01*
X157661491Y-90389470D01*
X157924464Y-90280543D01*
X158161134Y-90122405D01*
X158362405Y-89921134D01*
X158510000Y-89700243D01*
X158657595Y-89921134D01*
X158858866Y-90122405D01*
X159095536Y-90280543D01*
X159358509Y-90389470D01*
X159637680Y-90445000D01*
X159922320Y-90445000D01*
X160201491Y-90389470D01*
X160464464Y-90280543D01*
X160701134Y-90122405D01*
X160902405Y-89921134D01*
X161060543Y-89684464D01*
X161169470Y-89421491D01*
X161222752Y-89153620D01*
X161415000Y-89345868D01*
%TA.AperFunction,Conductor*%
D24*
G36*
X161415000Y-89345868D02*
G01*
X161415001Y-90136970D01*
X161410960Y-90177998D01*
X161427082Y-90341686D01*
X161474828Y-90499084D01*
X161552364Y-90644143D01*
X161552365Y-90644144D01*
X161656710Y-90771289D01*
X161688574Y-90797439D01*
X163565001Y-92673868D01*
X163565002Y-107858972D01*
X163560961Y-107900001D01*
X163577083Y-108063689D01*
X163624829Y-108221087D01*
X163702365Y-108366146D01*
X163702366Y-108366147D01*
X163806711Y-108493292D01*
X163838574Y-108519442D01*
X164039546Y-108720413D01*
X164052853Y-108787314D01*
X164127104Y-108966572D01*
X164234901Y-109127901D01*
X164372099Y-109265099D01*
X164533428Y-109372896D01*
X164712686Y-109447147D01*
X164902986Y-109485000D01*
X165097014Y-109485000D01*
X165287314Y-109447147D01*
X165465000Y-109373547D01*
X165465000Y-109676713D01*
X165427104Y-109733428D01*
X165352853Y-109912686D01*
X165315000Y-110102986D01*
X165315000Y-110297014D01*
X165352853Y-110487314D01*
X165427104Y-110666572D01*
X165442534Y-110689664D01*
X163691448Y-108938579D01*
X163665293Y-108906709D01*
X163538148Y-108802364D01*
X163393089Y-108724828D01*
X163235691Y-108677082D01*
X163113021Y-108665000D01*
X163113020Y-108665000D01*
X163072002Y-108660960D01*
X163030984Y-108665000D01*
X158345869Y-108665000D01*
X155535000Y-105854133D01*
X155535000Y-90179958D01*
X155621134Y-90122405D01*
X155822405Y-89921134D01*
X155970000Y-89700243D01*
X156117595Y-89921134D01*
X156318866Y-90122405D01*
X156555536Y-90280543D01*
X156818509Y-90389470D01*
X157097680Y-90445000D01*
X157382320Y-90445000D01*
X157661491Y-90389470D01*
X157924464Y-90280543D01*
X158161134Y-90122405D01*
X158362405Y-89921134D01*
X158510000Y-89700243D01*
X158657595Y-89921134D01*
X158858866Y-90122405D01*
X159095536Y-90280543D01*
X159358509Y-90389470D01*
X159637680Y-90445000D01*
X159922320Y-90445000D01*
X160201491Y-90389470D01*
X160464464Y-90280543D01*
X160701134Y-90122405D01*
X160902405Y-89921134D01*
X161060543Y-89684464D01*
X161169470Y-89421491D01*
X161222752Y-89153620D01*
X161415000Y-89345868D01*
G37*
%TD.AperFunction*%
%TD*%
M02*
