%TF.GenerationSoftware,KiCad,Pcbnew,(5.1.10)-1*%
%TF.CreationDate,2021-10-13T16:11:29-06:00*%
%TF.ProjectId,ReplicaDriverPuenteHL298,5265706c-6963-4614-9472-697665725075,1.0*%
%TF.SameCoordinates,Original*%
%TF.FileFunction,Legend,Bot*%
%TF.FilePolarity,Positive*%
%FSLAX46Y46*%
G04 Gerber Fmt 4.6, Leading zero omitted, Abs format (unit mm)*
G04 Created by KiCad (PCBNEW (5.1.10)-1) date 2021-10-13 16:11:29*
%MOMM*%
%LPD*%
G01*
G04 APERTURE LIST*
%ADD10C,0.150000*%
G04 APERTURE END LIST*
D10*
X128952380Y-80714285D02*
X127952380Y-80714285D01*
X127952380Y-80952380D01*
X128000000Y-81095238D01*
X128095238Y-81190476D01*
X128190476Y-81238095D01*
X128380952Y-81285714D01*
X128523809Y-81285714D01*
X128714285Y-81238095D01*
X128809523Y-81190476D01*
X128904761Y-81095238D01*
X128952380Y-80952380D01*
X128952380Y-80714285D01*
X128952380Y-81714285D02*
X128285714Y-81714285D01*
X127952380Y-81714285D02*
X128000000Y-81666666D01*
X128047619Y-81714285D01*
X128000000Y-81761904D01*
X127952380Y-81714285D01*
X128047619Y-81714285D01*
X128904761Y-82142857D02*
X128952380Y-82238095D01*
X128952380Y-82428571D01*
X128904761Y-82523809D01*
X128809523Y-82571428D01*
X128761904Y-82571428D01*
X128666666Y-82523809D01*
X128619047Y-82428571D01*
X128619047Y-82285714D01*
X128571428Y-82190476D01*
X128476190Y-82142857D01*
X128428571Y-82142857D01*
X128333333Y-82190476D01*
X128285714Y-82285714D01*
X128285714Y-82428571D01*
X128333333Y-82523809D01*
X128904761Y-83380952D02*
X128952380Y-83285714D01*
X128952380Y-83095238D01*
X128904761Y-83000000D01*
X128809523Y-82952380D01*
X128428571Y-82952380D01*
X128333333Y-83000000D01*
X128285714Y-83095238D01*
X128285714Y-83285714D01*
X128333333Y-83380952D01*
X128428571Y-83428571D01*
X128523809Y-83428571D01*
X128619047Y-82952380D01*
X128285714Y-83857142D02*
X128952380Y-83857142D01*
X128380952Y-83857142D02*
X128333333Y-83904761D01*
X128285714Y-84000000D01*
X128285714Y-84142857D01*
X128333333Y-84238095D01*
X128428571Y-84285714D01*
X128952380Y-84285714D01*
X128047619Y-83809523D02*
X128000000Y-83857142D01*
X127952380Y-83952380D01*
X128047619Y-84142857D01*
X128000000Y-84238095D01*
X127952380Y-84285714D01*
X128952380Y-85190476D02*
X128428571Y-85190476D01*
X128333333Y-85142857D01*
X128285714Y-85047619D01*
X128285714Y-84857142D01*
X128333333Y-84761904D01*
X128904761Y-85190476D02*
X128952380Y-85095238D01*
X128952380Y-84857142D01*
X128904761Y-84761904D01*
X128809523Y-84714285D01*
X128714285Y-84714285D01*
X128619047Y-84761904D01*
X128571428Y-84857142D01*
X128571428Y-85095238D01*
X128523809Y-85190476D01*
X128952380Y-86095238D02*
X127952380Y-86095238D01*
X128904761Y-86095238D02*
X128952380Y-86000000D01*
X128952380Y-85809523D01*
X128904761Y-85714285D01*
X128857142Y-85666666D01*
X128761904Y-85619047D01*
X128476190Y-85619047D01*
X128380952Y-85666666D01*
X128333333Y-85714285D01*
X128285714Y-85809523D01*
X128285714Y-86000000D01*
X128333333Y-86095238D01*
X128952380Y-86714285D02*
X128904761Y-86619047D01*
X128857142Y-86571428D01*
X128761904Y-86523809D01*
X128476190Y-86523809D01*
X128380952Y-86571428D01*
X128333333Y-86619047D01*
X128285714Y-86714285D01*
X128285714Y-86857142D01*
X128333333Y-86952380D01*
X128380952Y-87000000D01*
X128476190Y-87047619D01*
X128761904Y-87047619D01*
X128857142Y-87000000D01*
X128904761Y-86952380D01*
X128952380Y-86857142D01*
X128952380Y-86714285D01*
X128904761Y-88619047D02*
X128952380Y-88523809D01*
X128952380Y-88333333D01*
X128904761Y-88238095D01*
X128809523Y-88190476D01*
X128428571Y-88190476D01*
X128333333Y-88238095D01*
X128285714Y-88333333D01*
X128285714Y-88523809D01*
X128333333Y-88619047D01*
X128428571Y-88666666D01*
X128523809Y-88666666D01*
X128619047Y-88190476D01*
X128285714Y-89095238D02*
X128952380Y-89095238D01*
X128380952Y-89095238D02*
X128333333Y-89142857D01*
X128285714Y-89238095D01*
X128285714Y-89380952D01*
X128333333Y-89476190D01*
X128428571Y-89523809D01*
X128952380Y-89523809D01*
X128666666Y-90714285D02*
X128666666Y-91190476D01*
X128952380Y-90619047D02*
X127952380Y-90952380D01*
X128952380Y-91285714D01*
X128952380Y-91619047D02*
X128285714Y-91619047D01*
X128476190Y-91619047D02*
X128380952Y-91666666D01*
X128333333Y-91714285D01*
X128285714Y-91809523D01*
X128285714Y-91904761D01*
X128285714Y-92666666D02*
X129095238Y-92666666D01*
X129190476Y-92619047D01*
X129238095Y-92571428D01*
X129285714Y-92476190D01*
X129285714Y-92333333D01*
X129238095Y-92238095D01*
X128904761Y-92666666D02*
X128952380Y-92571428D01*
X128952380Y-92380952D01*
X128904761Y-92285714D01*
X128857142Y-92238095D01*
X128761904Y-92190476D01*
X128476190Y-92190476D01*
X128380952Y-92238095D01*
X128333333Y-92285714D01*
X128285714Y-92380952D01*
X128285714Y-92571428D01*
X128333333Y-92666666D01*
X128904761Y-93523809D02*
X128952380Y-93428571D01*
X128952380Y-93238095D01*
X128904761Y-93142857D01*
X128809523Y-93095238D01*
X128428571Y-93095238D01*
X128333333Y-93142857D01*
X128285714Y-93238095D01*
X128285714Y-93428571D01*
X128333333Y-93523809D01*
X128428571Y-93571428D01*
X128523809Y-93571428D01*
X128619047Y-93095238D01*
X128285714Y-94000000D02*
X128952380Y-94000000D01*
X128380952Y-94000000D02*
X128333333Y-94047619D01*
X128285714Y-94142857D01*
X128285714Y-94285714D01*
X128333333Y-94380952D01*
X128428571Y-94428571D01*
X128952380Y-94428571D01*
X128285714Y-94761904D02*
X128285714Y-95142857D01*
X127952380Y-94904761D02*
X128809523Y-94904761D01*
X128904761Y-94952380D01*
X128952380Y-95047619D01*
X128952380Y-95142857D01*
X128952380Y-95476190D02*
X128285714Y-95476190D01*
X127952380Y-95476190D02*
X128000000Y-95428571D01*
X128047619Y-95476190D01*
X128000000Y-95523809D01*
X127952380Y-95476190D01*
X128047619Y-95476190D01*
X128285714Y-95952380D02*
X128952380Y-95952380D01*
X128380952Y-95952380D02*
X128333333Y-96000000D01*
X128285714Y-96095238D01*
X128285714Y-96238095D01*
X128333333Y-96333333D01*
X128428571Y-96380952D01*
X128952380Y-96380952D01*
X128952380Y-97285714D02*
X128428571Y-97285714D01*
X128333333Y-97238095D01*
X128285714Y-97142857D01*
X128285714Y-96952380D01*
X128333333Y-96857142D01*
X128904761Y-97285714D02*
X128952380Y-97190476D01*
X128952380Y-96952380D01*
X128904761Y-96857142D01*
X128809523Y-96809523D01*
X128714285Y-96809523D01*
X128619047Y-96857142D01*
X128571428Y-96952380D01*
X128571428Y-97190476D01*
X128523809Y-97285714D01*
X160523809Y-74802380D02*
X160857142Y-74326190D01*
X161095238Y-74802380D02*
X161095238Y-73802380D01*
X160714285Y-73802380D01*
X160619047Y-73850000D01*
X160571428Y-73897619D01*
X160523809Y-73992857D01*
X160523809Y-74135714D01*
X160571428Y-74230952D01*
X160619047Y-74278571D01*
X160714285Y-74326190D01*
X161095238Y-74326190D01*
X159714285Y-74754761D02*
X159809523Y-74802380D01*
X160000000Y-74802380D01*
X160095238Y-74754761D01*
X160142857Y-74659523D01*
X160142857Y-74278571D01*
X160095238Y-74183333D01*
X160000000Y-74135714D01*
X159809523Y-74135714D01*
X159714285Y-74183333D01*
X159666666Y-74278571D01*
X159666666Y-74373809D01*
X160142857Y-74469047D01*
X159238095Y-74135714D02*
X159238095Y-75135714D01*
X159238095Y-74183333D02*
X159142857Y-74135714D01*
X158952380Y-74135714D01*
X158857142Y-74183333D01*
X158809523Y-74230952D01*
X158761904Y-74326190D01*
X158761904Y-74611904D01*
X158809523Y-74707142D01*
X158857142Y-74754761D01*
X158952380Y-74802380D01*
X159142857Y-74802380D01*
X159238095Y-74754761D01*
X158190476Y-74802380D02*
X158285714Y-74754761D01*
X158333333Y-74659523D01*
X158333333Y-73802380D01*
X157809523Y-74802380D02*
X157809523Y-74135714D01*
X157809523Y-73802380D02*
X157857142Y-73850000D01*
X157809523Y-73897619D01*
X157761904Y-73850000D01*
X157809523Y-73802380D01*
X157809523Y-73897619D01*
X156904761Y-74754761D02*
X157000000Y-74802380D01*
X157190476Y-74802380D01*
X157285714Y-74754761D01*
X157333333Y-74707142D01*
X157380952Y-74611904D01*
X157380952Y-74326190D01*
X157333333Y-74230952D01*
X157285714Y-74183333D01*
X157190476Y-74135714D01*
X157000000Y-74135714D01*
X156904761Y-74183333D01*
X156047619Y-74802380D02*
X156047619Y-74278571D01*
X156095238Y-74183333D01*
X156190476Y-74135714D01*
X156380952Y-74135714D01*
X156476190Y-74183333D01*
X156047619Y-74754761D02*
X156142857Y-74802380D01*
X156380952Y-74802380D01*
X156476190Y-74754761D01*
X156523809Y-74659523D01*
X156523809Y-74564285D01*
X156476190Y-74469047D01*
X156380952Y-74421428D01*
X156142857Y-74421428D01*
X156047619Y-74373809D01*
X155571428Y-74802380D02*
X155571428Y-73802380D01*
X155333333Y-73802380D01*
X155190476Y-73850000D01*
X155095238Y-73945238D01*
X155047619Y-74040476D01*
X155000000Y-74230952D01*
X155000000Y-74373809D01*
X155047619Y-74564285D01*
X155095238Y-74659523D01*
X155190476Y-74754761D01*
X155333333Y-74802380D01*
X155571428Y-74802380D01*
X154571428Y-74802380D02*
X154571428Y-74135714D01*
X154571428Y-74326190D02*
X154523809Y-74230952D01*
X154476190Y-74183333D01*
X154380952Y-74135714D01*
X154285714Y-74135714D01*
X153952380Y-74802380D02*
X153952380Y-74135714D01*
X153952380Y-73802380D02*
X154000000Y-73850000D01*
X153952380Y-73897619D01*
X153904761Y-73850000D01*
X153952380Y-73802380D01*
X153952380Y-73897619D01*
X153571428Y-74135714D02*
X153333333Y-74802380D01*
X153095238Y-74135714D01*
X152333333Y-74754761D02*
X152428571Y-74802380D01*
X152619047Y-74802380D01*
X152714285Y-74754761D01*
X152761904Y-74659523D01*
X152761904Y-74278571D01*
X152714285Y-74183333D01*
X152619047Y-74135714D01*
X152428571Y-74135714D01*
X152333333Y-74183333D01*
X152285714Y-74278571D01*
X152285714Y-74373809D01*
X152761904Y-74469047D01*
X151857142Y-74802380D02*
X151857142Y-74135714D01*
X151857142Y-74326190D02*
X151809523Y-74230952D01*
X151761904Y-74183333D01*
X151666666Y-74135714D01*
X151571428Y-74135714D01*
X151238095Y-74802380D02*
X151238095Y-73802380D01*
X150857142Y-73802380D01*
X150761904Y-73850000D01*
X150714285Y-73897619D01*
X150666666Y-73992857D01*
X150666666Y-74135714D01*
X150714285Y-74230952D01*
X150761904Y-74278571D01*
X150857142Y-74326190D01*
X151238095Y-74326190D01*
X149809523Y-74135714D02*
X149809523Y-74802380D01*
X150238095Y-74135714D02*
X150238095Y-74659523D01*
X150190476Y-74754761D01*
X150095238Y-74802380D01*
X149952380Y-74802380D01*
X149857142Y-74754761D01*
X149809523Y-74707142D01*
X148952380Y-74754761D02*
X149047619Y-74802380D01*
X149238095Y-74802380D01*
X149333333Y-74754761D01*
X149380952Y-74659523D01*
X149380952Y-74278571D01*
X149333333Y-74183333D01*
X149238095Y-74135714D01*
X149047619Y-74135714D01*
X148952380Y-74183333D01*
X148904761Y-74278571D01*
X148904761Y-74373809D01*
X149380952Y-74469047D01*
X148476190Y-74135714D02*
X148476190Y-74802380D01*
X148476190Y-74230952D02*
X148428571Y-74183333D01*
X148333333Y-74135714D01*
X148190476Y-74135714D01*
X148095238Y-74183333D01*
X148047619Y-74278571D01*
X148047619Y-74802380D01*
X147714285Y-74135714D02*
X147333333Y-74135714D01*
X147571428Y-73802380D02*
X147571428Y-74659523D01*
X147523809Y-74754761D01*
X147428571Y-74802380D01*
X147333333Y-74802380D01*
X146619047Y-74754761D02*
X146714285Y-74802380D01*
X146904761Y-74802380D01*
X147000000Y-74754761D01*
X147047619Y-74659523D01*
X147047619Y-74278571D01*
X147000000Y-74183333D01*
X146904761Y-74135714D01*
X146714285Y-74135714D01*
X146619047Y-74183333D01*
X146571428Y-74278571D01*
X146571428Y-74373809D01*
X147047619Y-74469047D01*
X146142857Y-74802380D02*
X146142857Y-73802380D01*
X146142857Y-74278571D02*
X145571428Y-74278571D01*
X145571428Y-74802380D02*
X145571428Y-73802380D01*
X144619047Y-74802380D02*
X145095238Y-74802380D01*
X145095238Y-73802380D01*
X144333333Y-73897619D02*
X144285714Y-73850000D01*
X144190476Y-73802380D01*
X143952380Y-73802380D01*
X143857142Y-73850000D01*
X143809523Y-73897619D01*
X143761904Y-73992857D01*
X143761904Y-74088095D01*
X143809523Y-74230952D01*
X144380952Y-74802380D01*
X143761904Y-74802380D01*
X143285714Y-74802380D02*
X143095238Y-74802380D01*
X143000000Y-74754761D01*
X142952380Y-74707142D01*
X142857142Y-74564285D01*
X142809523Y-74373809D01*
X142809523Y-73992857D01*
X142857142Y-73897619D01*
X142904761Y-73850000D01*
X143000000Y-73802380D01*
X143190476Y-73802380D01*
X143285714Y-73850000D01*
X143333333Y-73897619D01*
X143380952Y-73992857D01*
X143380952Y-74230952D01*
X143333333Y-74326190D01*
X143285714Y-74373809D01*
X143190476Y-74421428D01*
X143000000Y-74421428D01*
X142904761Y-74373809D01*
X142857142Y-74326190D01*
X142809523Y-74230952D01*
X142238095Y-74230952D02*
X142333333Y-74183333D01*
X142380952Y-74135714D01*
X142428571Y-74040476D01*
X142428571Y-73992857D01*
X142380952Y-73897619D01*
X142333333Y-73850000D01*
X142238095Y-73802380D01*
X142047619Y-73802380D01*
X141952380Y-73850000D01*
X141904761Y-73897619D01*
X141857142Y-73992857D01*
X141857142Y-74040476D01*
X141904761Y-74135714D01*
X141952380Y-74183333D01*
X142047619Y-74230952D01*
X142238095Y-74230952D01*
X142333333Y-74278571D01*
X142380952Y-74326190D01*
X142428571Y-74421428D01*
X142428571Y-74611904D01*
X142380952Y-74707142D01*
X142333333Y-74754761D01*
X142238095Y-74802380D01*
X142047619Y-74802380D01*
X141952380Y-74754761D01*
X141904761Y-74707142D01*
X141857142Y-74611904D01*
X141857142Y-74421428D01*
X141904761Y-74326190D01*
X141952380Y-74278571D01*
X142047619Y-74230952D01*
X154476190Y-76357142D02*
X154523809Y-76404761D01*
X154666666Y-76452380D01*
X154761904Y-76452380D01*
X154904761Y-76404761D01*
X155000000Y-76309523D01*
X155047619Y-76214285D01*
X155095238Y-76023809D01*
X155095238Y-75880952D01*
X155047619Y-75690476D01*
X155000000Y-75595238D01*
X154904761Y-75500000D01*
X154761904Y-75452380D01*
X154666666Y-75452380D01*
X154523809Y-75500000D01*
X154476190Y-75547619D01*
X154047619Y-75928571D02*
X153714285Y-75928571D01*
X153571428Y-76452380D02*
X154047619Y-76452380D01*
X154047619Y-75452380D01*
X153571428Y-75452380D01*
X153190476Y-76404761D02*
X153047619Y-76452380D01*
X152809523Y-76452380D01*
X152714285Y-76404761D01*
X152666666Y-76357142D01*
X152619047Y-76261904D01*
X152619047Y-76166666D01*
X152666666Y-76071428D01*
X152714285Y-76023809D01*
X152809523Y-75976190D01*
X153000000Y-75928571D01*
X153095238Y-75880952D01*
X153142857Y-75833333D01*
X153190476Y-75738095D01*
X153190476Y-75642857D01*
X153142857Y-75547619D01*
X153095238Y-75500000D01*
X153000000Y-75452380D01*
X152761904Y-75452380D01*
X152619047Y-75500000D01*
X152190476Y-75928571D02*
X151857142Y-75928571D01*
X151714285Y-76452380D02*
X152190476Y-76452380D01*
X152190476Y-75452380D01*
X151714285Y-75452380D01*
X151333333Y-75547619D02*
X151285714Y-75500000D01*
X151190476Y-75452380D01*
X150952380Y-75452380D01*
X150857142Y-75500000D01*
X150809523Y-75547619D01*
X150761904Y-75642857D01*
X150761904Y-75738095D01*
X150809523Y-75880952D01*
X151380952Y-76452380D01*
X150761904Y-76452380D01*
X150142857Y-75452380D02*
X150047619Y-75452380D01*
X149952380Y-75500000D01*
X149904761Y-75547619D01*
X149857142Y-75642857D01*
X149809523Y-75833333D01*
X149809523Y-76071428D01*
X149857142Y-76261904D01*
X149904761Y-76357142D01*
X149952380Y-76404761D01*
X150047619Y-76452380D01*
X150142857Y-76452380D01*
X150238095Y-76404761D01*
X150285714Y-76357142D01*
X150333333Y-76261904D01*
X150380952Y-76071428D01*
X150380952Y-75833333D01*
X150333333Y-75642857D01*
X150285714Y-75547619D01*
X150238095Y-75500000D01*
X150142857Y-75452380D01*
X149428571Y-75547619D02*
X149380952Y-75500000D01*
X149285714Y-75452380D01*
X149047619Y-75452380D01*
X148952380Y-75500000D01*
X148904761Y-75547619D01*
X148857142Y-75642857D01*
X148857142Y-75738095D01*
X148904761Y-75880952D01*
X149476190Y-76452380D01*
X148857142Y-76452380D01*
X147904761Y-76452380D02*
X148476190Y-76452380D01*
X148190476Y-76452380D02*
X148190476Y-75452380D01*
X148285714Y-75595238D01*
X148380952Y-75690476D01*
X148476190Y-75738095D01*
X158000000Y-78102380D02*
X158000000Y-77102380D01*
X157523809Y-77435714D02*
X157523809Y-78102380D01*
X157523809Y-77530952D02*
X157476190Y-77483333D01*
X157380952Y-77435714D01*
X157238095Y-77435714D01*
X157142857Y-77483333D01*
X157095238Y-77578571D01*
X157095238Y-78102380D01*
X156190476Y-77435714D02*
X156190476Y-78245238D01*
X156238095Y-78340476D01*
X156285714Y-78388095D01*
X156380952Y-78435714D01*
X156523809Y-78435714D01*
X156619047Y-78388095D01*
X156190476Y-78054761D02*
X156285714Y-78102380D01*
X156476190Y-78102380D01*
X156571428Y-78054761D01*
X156619047Y-78007142D01*
X156666666Y-77911904D01*
X156666666Y-77626190D01*
X156619047Y-77530952D01*
X156571428Y-77483333D01*
X156476190Y-77435714D01*
X156285714Y-77435714D01*
X156190476Y-77483333D01*
X155714285Y-78007142D02*
X155666666Y-78054761D01*
X155714285Y-78102380D01*
X155761904Y-78054761D01*
X155714285Y-78007142D01*
X155714285Y-78102380D01*
X155238095Y-78102380D02*
X155238095Y-77102380D01*
X155000000Y-77102380D01*
X154857142Y-77150000D01*
X154761904Y-77245238D01*
X154714285Y-77340476D01*
X154666666Y-77530952D01*
X154666666Y-77673809D01*
X154714285Y-77864285D01*
X154761904Y-77959523D01*
X154857142Y-78054761D01*
X155000000Y-78102380D01*
X155238095Y-78102380D01*
X153809523Y-78102380D02*
X153809523Y-77578571D01*
X153857142Y-77483333D01*
X153952380Y-77435714D01*
X154142857Y-77435714D01*
X154238095Y-77483333D01*
X153809523Y-78054761D02*
X153904761Y-78102380D01*
X154142857Y-78102380D01*
X154238095Y-78054761D01*
X154285714Y-77959523D01*
X154285714Y-77864285D01*
X154238095Y-77769047D01*
X154142857Y-77721428D01*
X153904761Y-77721428D01*
X153809523Y-77673809D01*
X153333333Y-78102380D02*
X153333333Y-77435714D01*
X153333333Y-77530952D02*
X153285714Y-77483333D01*
X153190476Y-77435714D01*
X153047619Y-77435714D01*
X152952380Y-77483333D01*
X152904761Y-77578571D01*
X152904761Y-78102380D01*
X152904761Y-77578571D02*
X152857142Y-77483333D01*
X152761904Y-77435714D01*
X152619047Y-77435714D01*
X152523809Y-77483333D01*
X152476190Y-77578571D01*
X152476190Y-78102380D01*
X152000000Y-78102380D02*
X152000000Y-77435714D01*
X152000000Y-77102380D02*
X152047619Y-77150000D01*
X152000000Y-77197619D01*
X151952380Y-77150000D01*
X152000000Y-77102380D01*
X152000000Y-77197619D01*
X151095238Y-78102380D02*
X151095238Y-77578571D01*
X151142857Y-77483333D01*
X151238095Y-77435714D01*
X151428571Y-77435714D01*
X151523809Y-77483333D01*
X151095238Y-78054761D02*
X151190476Y-78102380D01*
X151428571Y-78102380D01*
X151523809Y-78054761D01*
X151571428Y-77959523D01*
X151571428Y-77864285D01*
X151523809Y-77769047D01*
X151428571Y-77721428D01*
X151190476Y-77721428D01*
X151095238Y-77673809D01*
X150619047Y-77435714D02*
X150619047Y-78102380D01*
X150619047Y-77530952D02*
X150571428Y-77483333D01*
X150476190Y-77435714D01*
X150333333Y-77435714D01*
X150238095Y-77483333D01*
X150190476Y-77578571D01*
X150190476Y-78102380D01*
X149142857Y-78007142D02*
X149190476Y-78054761D01*
X149333333Y-78102380D01*
X149428571Y-78102380D01*
X149571428Y-78054761D01*
X149666666Y-77959523D01*
X149714285Y-77864285D01*
X149761904Y-77673809D01*
X149761904Y-77530952D01*
X149714285Y-77340476D01*
X149666666Y-77245238D01*
X149571428Y-77150000D01*
X149428571Y-77102380D01*
X149333333Y-77102380D01*
X149190476Y-77150000D01*
X149142857Y-77197619D01*
X148285714Y-78102380D02*
X148285714Y-77578571D01*
X148333333Y-77483333D01*
X148428571Y-77435714D01*
X148619047Y-77435714D01*
X148714285Y-77483333D01*
X148285714Y-78054761D02*
X148380952Y-78102380D01*
X148619047Y-78102380D01*
X148714285Y-78054761D01*
X148761904Y-77959523D01*
X148761904Y-77864285D01*
X148714285Y-77769047D01*
X148619047Y-77721428D01*
X148380952Y-77721428D01*
X148285714Y-77673809D01*
X147809523Y-77435714D02*
X147809523Y-78435714D01*
X147809523Y-77483333D02*
X147714285Y-77435714D01*
X147523809Y-77435714D01*
X147428571Y-77483333D01*
X147380952Y-77530952D01*
X147333333Y-77626190D01*
X147333333Y-77911904D01*
X147380952Y-78007142D01*
X147428571Y-78054761D01*
X147523809Y-78102380D01*
X147714285Y-78102380D01*
X147809523Y-78054761D01*
X146476190Y-77435714D02*
X146476190Y-78102380D01*
X146904761Y-77435714D02*
X146904761Y-77959523D01*
X146857142Y-78054761D01*
X146761904Y-78102380D01*
X146619047Y-78102380D01*
X146523809Y-78054761D01*
X146476190Y-78007142D01*
X146142857Y-77435714D02*
X145761904Y-77435714D01*
X146000000Y-77102380D02*
X146000000Y-77959523D01*
X145952380Y-78054761D01*
X145857142Y-78102380D01*
X145761904Y-78102380D01*
X145285714Y-78102380D02*
X145380952Y-78054761D01*
X145428571Y-78007142D01*
X145476190Y-77911904D01*
X145476190Y-77626190D01*
X145428571Y-77530952D01*
X145380952Y-77483333D01*
X145285714Y-77435714D01*
X145142857Y-77435714D01*
X145047619Y-77483333D01*
X145000000Y-77530952D01*
X144952380Y-77626190D01*
X144952380Y-77911904D01*
X145000000Y-78007142D01*
X145047619Y-78054761D01*
X145142857Y-78102380D01*
X145285714Y-78102380D01*
M02*
