%TF.GenerationSoftware,KiCad,Pcbnew,(5.1.10)-1*%
%TF.CreationDate,2021-10-13T16:11:29-06:00*%
%TF.ProjectId,ReplicaDriverPuenteHL298,5265706c-6963-4614-9472-697665725075,1.0*%
%TF.SameCoordinates,Original*%
%TF.FileFunction,Soldermask,Top*%
%TF.FilePolarity,Negative*%
%FSLAX46Y46*%
G04 Gerber Fmt 4.6, Leading zero omitted, Abs format (unit mm)*
G04 Created by KiCad (PCBNEW (5.1.10)-1) date 2021-10-13 16:11:29*
%MOMM*%
%LPD*%
G01*
G04 APERTURE LIST*
%ADD10C,1.000000*%
%ADD11C,1.524000*%
%ADD12R,3.500000X1.600000*%
%ADD13R,1.620000X1.620000*%
%ADD14C,1.620000*%
%ADD15C,5.400000*%
%ADD16R,2.500000X1.800000*%
%ADD17R,1.500000X1.300000*%
%ADD18O,1.700000X1.700000*%
%ADD19R,1.700000X1.700000*%
%ADD20R,3.000000X3.000000*%
%ADD21C,3.000000*%
%ADD22R,6.400000X5.800000*%
%ADD23R,2.200000X1.200000*%
G04 APERTURE END LIST*
D10*
%TO.C,FID3*%
X170500000Y-112750000D03*
%TD*%
%TO.C,FID2*%
X130500000Y-112750000D03*
%TD*%
%TO.C,FID1*%
X150500000Y-76250000D03*
%TD*%
D11*
%TO.C,HS1*%
X141700000Y-77700000D03*
X160200000Y-77700000D03*
%TD*%
D12*
%TO.C,C2*%
X155800000Y-107500000D03*
X161200000Y-107500000D03*
%TD*%
D13*
%TO.C,U1*%
X142000000Y-89000000D03*
D14*
X143270000Y-83920000D03*
X144540000Y-89000000D03*
X145810000Y-83920000D03*
X147080000Y-89000000D03*
X148350000Y-83920000D03*
X149620000Y-89000000D03*
X150890000Y-83920000D03*
X152160000Y-89000000D03*
X153430000Y-83920000D03*
X154700000Y-89000000D03*
X155970000Y-83920000D03*
X157240000Y-89000000D03*
X158510000Y-83920000D03*
X159780000Y-89000000D03*
%TD*%
D15*
%TO.C,H4*%
X129000000Y-74500000D03*
%TD*%
%TO.C,H3*%
X172000000Y-74500000D03*
%TD*%
%TO.C,H2*%
X172000000Y-117500000D03*
%TD*%
%TO.C,H1*%
X129000000Y-117500000D03*
%TD*%
D12*
%TO.C,C1*%
X143900000Y-107500000D03*
X138500000Y-107500000D03*
%TD*%
D16*
%TO.C,D1*%
X133500000Y-85500000D03*
X129500000Y-85500000D03*
%TD*%
%TO.C,D2*%
X129500000Y-90500000D03*
X133500000Y-90500000D03*
%TD*%
%TO.C,D3*%
X167500000Y-90500000D03*
X171500000Y-90500000D03*
%TD*%
%TO.C,D4*%
X171500000Y-86000000D03*
X167500000Y-86000000D03*
%TD*%
%TO.C,D5*%
X129500000Y-80500000D03*
X133500000Y-80500000D03*
%TD*%
%TO.C,D6*%
X133500000Y-95500000D03*
X129500000Y-95500000D03*
%TD*%
%TO.C,D7*%
X167500000Y-95500000D03*
X171500000Y-95500000D03*
%TD*%
%TO.C,D8*%
X171500000Y-81000000D03*
X167500000Y-81000000D03*
%TD*%
D17*
%TO.C,D9*%
X148650000Y-107500000D03*
X151350000Y-107500000D03*
%TD*%
D18*
%TO.C,J1*%
X154380000Y-117500000D03*
X156920000Y-117500000D03*
X159460000Y-117500000D03*
D19*
X162000000Y-117500000D03*
%TD*%
D20*
%TO.C,J2*%
X130500000Y-102500000D03*
D21*
X130500000Y-107580000D03*
%TD*%
%TO.C,J3*%
X170500000Y-102420000D03*
D20*
X170500000Y-107500000D03*
%TD*%
D18*
%TO.C,J4*%
X150500000Y-114960000D03*
D19*
X150500000Y-117500000D03*
%TD*%
D18*
%TO.C,J5*%
X166000000Y-114960000D03*
D19*
X166000000Y-117500000D03*
%TD*%
%TO.C,J6*%
X143500000Y-101000000D03*
D18*
X143500000Y-98460000D03*
%TD*%
D21*
%TO.C,J7*%
X145660000Y-116000000D03*
X140580000Y-116000000D03*
D20*
X135500000Y-116000000D03*
%TD*%
D17*
%TO.C,R1*%
X148650000Y-103500000D03*
X151350000Y-103500000D03*
%TD*%
D22*
%TO.C,U2*%
X157825000Y-96525000D03*
D23*
X151525000Y-98805000D03*
X151525000Y-94245000D03*
%TD*%
M02*
